<?xml version="1.0" encoding="utf-8"?>
<!-- Generator: Adobe Illustrator 23.0.3, SVG Export Plug-In . SVG Version: 6.00 Build 0)  -->
<svg version="1.1" id="Layer_1" xmlns="http://www.w3.org/2000/svg" xmlns:xlink="http://www.w3.org/1999/xlink" x="0px" y="0px"
	 viewBox="0 0 42.11 51" style="enable-background:new 0 0 42.11 51;" xml:space="preserve">
<style type="text/css">
	.st0{fill:#FF1D25;}
	.st1{fill:#282827;}
	.st2{fill:#9CCB54;}
	.st3{fill:#FFFFFF;}
	.st4{fill:#282828;}
	.st5{fill:#4C9928;}
	.st6{fill:#58B32D;}
	.st7{fill:#F25500;}
	.st8{fill:#DB0100;}
	.st9{fill:#FC00A6;}
	.st10{fill:#8E30E6;}
	.st11{fill:#2A99F7;}
	.st12{fill:none;stroke:#F25500;stroke-miterlimit:10;}
	.st13{fill:#EEEEEE;}
	.st14{fill:#666666;}
	.st15{fill:#4B4B4B;}
	.st16{fill:#323232;}
	.st17{fill:#F0F0F0;}
	.st18{fill:#B4B4B4;}
	.st19{fill-rule:evenodd;clip-rule:evenodd;fill:#AAAAAA;}
	.st20{fill:#AAAAAA;}
	.st21{fill-rule:evenodd;clip-rule:evenodd;fill:#424242;}
	.st22{fill-rule:evenodd;clip-rule:evenodd;fill:#85F34F;}
	.st23{fill-rule:evenodd;clip-rule:evenodd;fill:#323232;}
	.st24{fill:#717171;}
	.st25{fill:#B32CC3;}
	.st26{fill:#EC8B00;}
	.st27{fill:#8B8B8B;stroke:#8B8B8B;stroke-miterlimit:10;}
	.st28{fill:none;stroke:#666666;stroke-width:2;stroke-miterlimit:10;}
	.st29{clip-path:url(#SVGID_2_);fill:#FFFFFF;}
	.st30{clip-path:url(#SVGID_4_);fill:#FFFFFF;}
	.st31{fill:#FFFFFF;stroke:#58B32D;stroke-width:3;stroke-miterlimit:10;}
	.st32{fill:url(#SVGID_5_);}
	.st33{fill-rule:evenodd;clip-rule:evenodd;fill:#58B32D;stroke:#717171;stroke-miterlimit:10;}
	.st34{fill:url(#SVGID_6_);}
	.st35{fill-rule:evenodd;clip-rule:evenodd;fill:#FF0000;stroke:#717171;stroke-miterlimit:10;}
	.st36{fill:url(#SVGID_7_);}
	.st37{fill-rule:evenodd;clip-rule:evenodd;fill:#8E30E6;stroke:#717171;stroke-miterlimit:10;}
	.st38{fill:url(#SVGID_8_);}
	.st39{fill-rule:evenodd;clip-rule:evenodd;fill:#1119B7;stroke:#717171;stroke-miterlimit:10;}
	.st40{fill:url(#SVGID_9_);}
	.st41{fill-rule:evenodd;clip-rule:evenodd;fill:#2A99F7;stroke:#717171;stroke-miterlimit:10;}
	.st42{fill:url(#SVGID_10_);}
	.st43{fill-rule:evenodd;clip-rule:evenodd;fill:#F7931E;stroke:#717171;stroke-miterlimit:10;}
	.st44{fill-rule:evenodd;clip-rule:evenodd;fill:#58B32D;}
	.st45{fill-rule:evenodd;clip-rule:evenodd;fill:#FF0000;}
	.st46{fill-rule:evenodd;clip-rule:evenodd;fill:#8E30E6;}
	.st47{fill-rule:evenodd;clip-rule:evenodd;fill:#1119B7;}
	.st48{fill-rule:evenodd;clip-rule:evenodd;fill:#2A99F7;}
	.st49{fill-rule:evenodd;clip-rule:evenodd;fill:#F7931E;}
	.st50{fill-rule:evenodd;clip-rule:evenodd;fill:#4D4D4D;}
	.st51{fill:none;stroke:#333333;stroke-width:3;stroke-linecap:round;stroke-miterlimit:10;}
	.st52{fill:none;stroke:#8B8B8B;stroke-width:2;stroke-linecap:round;stroke-miterlimit:10;}
	.st53{fill:#8B8B8B;}
	.st54{fill:#999999;}
	.st55{fill:#282D33;}
	.st56{fill:#191900;}
	.st57{fill:#FFFF00;}
</style>
<g>
	<g>
		<g>
			<path class="st55" d="M21.06,51C9.45,51,0,41.64,0,30.14C0,19.8,7.79,10.92,18.11,9.49l0.27,1.97
				c-9.35,1.3-16.39,9.33-16.39,18.69c0,10.41,8.55,18.87,19.07,18.87c10.51,0,19.07-8.47,19.07-18.87
				c0-9.34-7.03-17.37-16.36-18.68l0.28-1.97c10.3,1.45,18.07,10.33,18.07,20.65C42.11,41.64,32.67,51,21.06,51z"/>
		</g>
		<g>
			<g>
				<path class="st55" d="M24.22,7.15h-6.33c-0.5,0-0.97-0.19-1.32-0.55c-0.35-0.35-0.54-0.82-0.54-1.31l0-3.43
					c0-1.03,0.84-1.86,1.86-1.86l6.33,0c0.5,0,0.97,0.2,1.33,0.55c0.35,0.35,0.54,0.82,0.54,1.31l0,3.43
					C26.08,6.32,25.24,7.15,24.22,7.15z M18.02,5.16h6.08l0-3.17l-6.08,0L18.02,5.16z"/>
			</g>
		</g>
		<g>
			<g>
				<g>
					<g>
						<g>
							<path class="st55" d="M7.6,14.03l0.86,0.7l-3.93-1.68c-0.23-0.33-0.32-0.74-0.24-1.15c0.08-0.4,0.31-0.75,0.65-0.98
								l3.26-2.19c0.7-0.47,1.65-0.29,2.13,0.41l0.62,3.6l-0.82-0.39"/>
						</g>
					</g>
				</g>
			</g>
			<g>
				<g>
					<g>
						<g>
							<path class="st55" d="M31.99,12.36l-1.17-0.11l0.97-3.11c0.47-0.69,1.43-0.87,2.12-0.41l3.26,2.19
								c0.34,0.23,0.57,0.58,0.65,0.98c0.08,0.4-0.01,0.81-0.24,1.15l-3.29,2.67l0.21-1.69"/>
						</g>
					</g>
				</g>
			</g>
		</g>
		<g>
			<g>
				<rect x="20.15" y="17.03" class="st55" width="1.56" height="2.21"/>
			</g>
			<g>
				
					<rect x="14.1" y="18.7" transform="matrix(0.864 -0.5035 0.5035 0.864 -7.9469 10.1864)" class="st55" width="1.56" height="2.21"/>
			</g>
			<g>
				
					<rect x="9.71" y="23.13" transform="matrix(0.4972 -0.8676 0.8676 0.4972 -15.762 21.2922)" class="st55" width="1.56" height="2.22"/>
			</g>
			<g>
				<rect x="7.81" y="29.49" class="st55" width="2.23" height="1.56"/>
			</g>
			<g>
				
					<rect x="9.5" y="35.48" transform="matrix(0.8682 -0.4961 0.4961 0.8682 -16.5892 10.0441)" class="st55" width="2.22" height="1.56"/>
			</g>
			<g>
				
					<rect x="14" y="39.82" transform="matrix(0.5048 -0.8632 0.8632 0.5048 -27.5722 33.1424)" class="st55" width="2.21" height="1.56"/>
			</g>
			<g>
				<rect x="20.4" y="41.05" class="st55" width="1.56" height="2.21"/>
			</g>
			<g>
				
					<rect x="26.45" y="39.37" transform="matrix(0.8642 -0.5032 0.5032 0.8642 -16.6712 19.202)" class="st55" width="1.56" height="2.21"/>
			</g>
			<g>
				
					<rect x="30.84" y="34.93" transform="matrix(0.4971 -0.8677 0.8677 0.4971 -15.3666 45.5612)" class="st55" width="1.56" height="2.22"/>
			</g>
			<g>
				
					<rect x="32.4" y="28.9" transform="matrix(1.033112e-03 -1 1 1.033112e-03 3.1326 63.1701)" class="st55" width="1.56" height="2.23"/>
			</g>
			<g>
				
					<rect x="30.38" y="23.25" transform="matrix(0.8686 -0.4956 0.4956 0.8686 -7.7687 18.767)" class="st55" width="2.22" height="1.56"/>
			</g>
			<g>
				
					<rect x="25.91" y="18.9" transform="matrix(0.5045 -0.8634 0.8634 0.5045 -3.6066 33.0745)" class="st55" width="2.21" height="1.56"/>
			</g>
		</g>
		<g>
			
				<rect x="20.88" y="25.8" transform="matrix(0.7039 -0.7103 0.7103 0.7039 -11.6975 25.1616)" class="st55" width="6.91" height="1.62"/>
		</g>
		<g>
			<g>
				<path class="st55" d="M21.94,31.87L21.94,31.87L21.94,31.87L21.94,31.87c-1.46,0-2.64-1.18-2.64-2.63
					c0-0.69,0.27-1.35,0.76-1.85c0.5-0.5,1.17-0.78,1.88-0.78c1.46,0,2.64,1.18,2.64,2.63c0,0.7-0.28,1.36-0.78,1.86
					C23.3,31.6,22.64,31.87,21.94,31.87z M21.94,28.59c-0.18,0-0.35,0.07-0.48,0.2c-0.12,0.12-0.19,0.28-0.19,0.45
					c0,0.36,0.3,0.66,0.67,0.66h0c0.18,0,0.35-0.07,0.48-0.2c0.13-0.12,0.19-0.29,0.19-0.46C22.61,28.89,22.31,28.59,21.94,28.59z"
					/>
			</g>
		</g>
		<g>
			<rect x="20.06" y="6.04" class="st55" width="1.99" height="5.56"/>
		</g>
		<g>
			<path d="M20.88,15.24c8.21,0,14.9,6.68,14.9,14.9s-6.68,14.9-14.9,14.9s-14.9-6.68-14.9-14.9S12.67,15.24,20.88,15.24
				 M20.88,13.24c-9.33,0-16.9,7.56-16.9,16.9c0,9.33,7.56,16.9,16.9,16.9s16.9-7.56,16.9-16.9C37.78,20.8,30.21,13.24,20.88,13.24
				L20.88,13.24z"/>
		</g>
	</g>
</g>
</svg>
