<?xml version="1.0" encoding="utf-8"?>
<!-- Generator: Adobe Illustrator 23.0.3, SVG Export Plug-In . SVG Version: 6.00 Build 0)  -->
<svg version="1.1" id="Layer_1" xmlns="http://www.w3.org/2000/svg" xmlns:xlink="http://www.w3.org/1999/xlink" x="0px" y="0px"
	 viewBox="0 0 54 54" style="enable-background:new 0 0 54 54;" xml:space="preserve">
<style type="text/css">
	.st0{fill:#FF1D25;}
	.st1{fill:#282827;}
	.st2{fill:#9CCB54;}
	.st3{fill:#FFFFFF;}
	.st4{fill:#282828;}
	.st5{fill:#4C9928;}
	.st6{fill:#58B32D;}
	.st7{fill:#F25500;}
	.st8{fill:#DB0100;}
	.st9{fill:#FC00A6;}
	.st10{fill:#8E30E6;}
	.st11{fill:#2A99F7;}
	.st12{fill:none;stroke:#F25500;stroke-miterlimit:10;}
	.st13{fill:#EEEEEE;}
	.st14{fill:#666666;}
	.st15{fill:#4B4B4B;}
	.st16{fill:#323232;}
	.st17{fill:#F0F0F0;}
	.st18{fill:#B4B4B4;}
	.st19{fill-rule:evenodd;clip-rule:evenodd;fill:#AAAAAA;}
	.st20{fill:#AAAAAA;}
	.st21{fill-rule:evenodd;clip-rule:evenodd;fill:#424242;}
	.st22{fill-rule:evenodd;clip-rule:evenodd;fill:#85F34F;}
	.st23{fill-rule:evenodd;clip-rule:evenodd;fill:#323232;}
	.st24{fill:#717171;}
	.st25{fill:#B32CC3;}
	.st26{fill:#EC8B00;}
	.st27{fill:#8B8B8B;stroke:#8B8B8B;stroke-miterlimit:10;}
	.st28{fill:none;stroke:#666666;stroke-width:2;stroke-miterlimit:10;}
	.st29{clip-path:url(#SVGID_2_);fill:#FFFFFF;}
	.st30{clip-path:url(#SVGID_4_);fill:#FFFFFF;}
	.st31{fill:#FFFFFF;stroke:#58B32D;stroke-width:3;stroke-miterlimit:10;}
	.st32{fill:url(#SVGID_5_);}
	.st33{fill-rule:evenodd;clip-rule:evenodd;fill:#58B32D;stroke:#717171;stroke-miterlimit:10;}
	.st34{fill:url(#SVGID_6_);}
	.st35{fill-rule:evenodd;clip-rule:evenodd;fill:#FF0000;stroke:#717171;stroke-miterlimit:10;}
	.st36{fill:url(#SVGID_7_);}
	.st37{fill-rule:evenodd;clip-rule:evenodd;fill:#8E30E6;stroke:#717171;stroke-miterlimit:10;}
	.st38{fill:url(#SVGID_8_);}
	.st39{fill-rule:evenodd;clip-rule:evenodd;fill:#1119B7;stroke:#717171;stroke-miterlimit:10;}
	.st40{fill:url(#SVGID_9_);}
	.st41{fill-rule:evenodd;clip-rule:evenodd;fill:#2A99F7;stroke:#717171;stroke-miterlimit:10;}
	.st42{fill:url(#SVGID_10_);}
	.st43{fill-rule:evenodd;clip-rule:evenodd;fill:#F7931E;stroke:#717171;stroke-miterlimit:10;}
	.st44{fill-rule:evenodd;clip-rule:evenodd;fill:#58B32D;}
	.st45{fill-rule:evenodd;clip-rule:evenodd;fill:#FF0000;}
	.st46{fill-rule:evenodd;clip-rule:evenodd;fill:#8E30E6;}
	.st47{fill-rule:evenodd;clip-rule:evenodd;fill:#1119B7;}
	.st48{fill-rule:evenodd;clip-rule:evenodd;fill:#2A99F7;}
	.st49{fill-rule:evenodd;clip-rule:evenodd;fill:#F7931E;}
	.st50{fill-rule:evenodd;clip-rule:evenodd;fill:#4D4D4D;}
	.st51{fill:none;stroke:#333333;stroke-width:3;stroke-linecap:round;stroke-miterlimit:10;}
	.st52{fill:none;stroke:#8B8B8B;stroke-width:2;stroke-linecap:round;stroke-miterlimit:10;}
	.st53{fill:#8B8B8B;}
	.st54{fill:#999999;}
	.st55{fill:#282D33;}
	.st56{fill:#191900;}
	.st57{fill:#FFFF00;}
</style>
<g>
	<path d="M27.04,4.34l3.65-3.42l0.88-0.82l0.5,1.09l1.97,4.28l4.54-2.13l1.09-0.51l0.14,1.19l0.55,4.67l4.97-0.62l1.19-0.15
		L46.28,9.1l-0.92,4.62l4.92,0.94l1.18,0.23l-0.59,1.05l-2.31,4.11l4.39,2.42L54,23.04l-0.88,0.82l-3.46,3.19l3.42,3.65l0.82,0.88
		l-1.09,0.5l-4.28,1.97l2.13,4.54l0.51,1.09l-1.19,0.14l-4.67,0.55l0.62,4.97l0.15,1.19l-1.18-0.24l-4.62-0.92l-0.94,4.92
		l-0.23,1.18l-1.05-0.59l-4.11-2.31l-2.42,4.39L30.96,54l-0.82-0.88l-3.19-3.46l-3.65,3.42l-0.88,0.82l-0.5-1.09l-1.97-4.28
		l-4.54,2.13l-1.09,0.51l-0.14-1.19l-0.55-4.67l-4.97,0.62l-1.19,0.15l0.24-1.18l0.92-4.62l-4.92-0.94l-1.18-0.23l0.59-1.05
		l2.31-4.11l-4.39-2.42L0,30.96l0.88-0.82l3.46-3.19L0.92,23.3L0.1,22.43l1.09-0.5l4.28-1.97l-2.13-4.54l-0.51-1.09l1.19-0.14
		l4.67-0.55L8.07,8.67L7.92,7.48L9.1,7.72l4.62,0.92l0.94-4.92l0.23-1.18l1.05,0.59l4.11,2.31l2.42-4.39L23.04,0l0.82,0.88
		L27.04,4.34L27.04,4.34z"/>
</g>
<path class="st57" d="M30.06,41.31c0,1.32-1.13,2.38-2.53,2.38S25,42.62,25,41.31V21.39c0-1.32,1.13-2.38,2.53-2.38
	s2.53,1.07,2.53,2.38V41.31z"/>
<circle class="st57" cx="27.5" cy="13.93" r="2.56"/>
</svg>
