<?xml version="1.0" encoding="utf-8"?>
<!-- Generator: Adobe Illustrator 17.1.0, SVG Export Plug-In . SVG Version: 6.00 Build 0)  -->
<!DOCTYPE svg PUBLIC "-//W3C//DTD SVG 1.1//EN" "http://www.w3.org/Graphics/SVG/1.1/DTD/svg11.dtd">
<svg version="1.1" id="Layer_1" xmlns="http://www.w3.org/2000/svg" xmlns:xlink="http://www.w3.org/1999/xlink" x="0px" y="0px"
	 viewBox="0 0 17 19" style="enable-background:new 0 0 17 19;" xml:space="preserve">
<g>
	<g>
		<g>
			<path style="fill:#4B4A4A;" d="M7,12.5C7,12.5,7,12.5,7,12.5c-0.3-0.1-0.3-0.3-0.3-0.4c0.2-0.4,0.3-0.8,0.5-1.2
				C7.6,10.3,8,9.7,8.4,9.2C8.5,9,8.7,9,8.8,9.1c0.1,0.1,0.1,0.3,0,0.4c-0.4,0.4-0.7,1-1.1,1.6c-0.2,0.4-0.3,0.7-0.4,1.1
				C7.3,12.4,7.2,12.5,7,12.5z"/>
		</g>
		<g>
			<path style="fill:#4B4A4A;" d="M13.9,16c-0.1,0-0.2-0.1-0.3-0.2c-0.1-0.1,0-0.3,0.1-0.4l2.6-1.2c-0.2-0.8-0.9-3.7-2.6-5.2
				c-0.1-0.1-0.1-0.3,0-0.4c0.1-0.1,0.3-0.1,0.4,0c2.2,1.8,2.9,5.6,2.9,5.7c0,0.1,0,0.3-0.2,0.3L14.1,16C14,16,14,16,13.9,16z"/>
		</g>
		<g>
			<path style="fill:#4B4A4A;" d="M11.5,9C10,9,8.7,7.3,8.3,5.7c0-0.2,0-0.3,0.2-0.4c0.2,0,0.3,0,0.4,0.2c0.4,1.4,1.5,2.9,2.7,2.9
				c1.5,0,2.8-2.4,2.9-3.9c0-0.2,0.1-0.3,0.3-0.3c0.2,0,0.3,0.1,0.3,0.3C14.8,6.3,13.4,9,11.5,9z"/>
		</g>
		<g>
			<path style="fill:#4B4A4A;" d="M7.9,6C7.8,6,7.7,5.9,7.7,5.8c-0.1-0.4-0.3-1-0.3-1.6C7.4,1.9,9.3,0,11.6,0c2.2,0,4,1.7,4.2,3.9
				c0,0.1,0,0.1,0,0.2c-0.4,0.9-2.4,1.1-2.6,1.1c-0.1,0-0.2,0-0.3-0.1c-0.1-0.1-0.1-0.2-0.1-0.3c0,0,0.1-0.3,0.1-0.8l0,0
				C11.7,5,9.3,5.9,7.9,6L7.9,6z M11.6,0.6c-2,0-3.6,1.6-3.6,3.6c0,0.4,0.1,0.9,0.2,1.2c1.3-0.1,3.4-0.9,4.4-1.8
				c0.2-0.2,0.4-0.4,0.4-0.6c0.1-0.1,0.2-0.2,0.3-0.2c0.1,0,0.2,0.1,0.2,0.3c0,0.3,0,0.5,0,0.8c0,0.3,0,0.5-0.1,0.6
				c0.7-0.1,1.5-0.4,1.7-0.7C15,2,13.4,0.6,11.6,0.6z"/>
		</g>
	</g>
	<g>
		<g>
			<path style="fill:#4B4A4A;" d="M9,18.6c-1.1,0-4.7-0.4-7.5-4.8C0,11.3-0.1,8.9,0.1,7.3c0.2-1.8,0.8-3.1,1.1-3.3L3,2.8
				c0.2-0.1,0.4-0.2,0.6-0.2c0.4,0,0.8,0.2,1.1,0.6c0,0,0,0,0,0l1.2,2.9c0.4,0.6,0.2,1.3-0.4,1.7L4.1,8.6C3.9,8.7,3.7,8.8,3.5,8.8
				l0,0c-0.1,0-0.1,0-0.2,0c0,0.6,0,2.1,0.8,3.4c0.8,1.3,2.1,2,2.7,2.2c0.1-0.2,0.2-0.5,0.5-0.6l1.4-0.9c0.2-0.1,0.4-0.2,0.6-0.2
				c0.4,0,0.8,0.2,1,0.6l1.9,2.4c0,0,0,0,0,0c0.2,0.3,0.2,0.6,0.2,0.9c-0.1,0.3-0.3,0.6-0.5,0.8l-1.7,1.1C9.9,18.5,9.5,18.6,9,18.6z
				 M1.5,4.4c-0.1,0.1-0.7,1.2-0.9,3c-0.1,1.5,0,3.8,1.4,6.1c2.6,4.2,6,4.6,7,4.6c0.5,0,0.7-0.1,0.8-0.1l1.7-1.1
				c0.2-0.1,0.3-0.2,0.3-0.4c0-0.2,0-0.4-0.1-0.5l-1.9-2.4c0,0,0,0,0,0c-0.1-0.2-0.3-0.3-0.6-0.3c-0.1,0-0.3,0-0.4,0.1l-1.4,0.9
				c-0.2,0.1-0.3,0.4-0.3,0.6c0,0.1-0.1,0.2-0.1,0.2C7,15,6.9,15,6.8,15c-0.1,0-2.1-0.7-3.2-2.6s-0.9-4-0.9-4.1
				c0-0.1,0.1-0.2,0.2-0.2c0.1,0,0.2,0,0.3,0c0.2,0.1,0.5,0.1,0.7,0l1.4-0.9c0.3-0.2,0.4-0.6,0.2-0.9c0,0,0,0,0,0L4.2,3.5
				C4.1,3.3,3.9,3.2,3.7,3.2c-0.1,0-0.3,0-0.4,0.1L1.5,4.4z"/>
		</g>
		<g>
			<path style="fill:#4B4A4A;" d="M7.7,16.3c-0.1,0-0.2,0-0.3-0.1l-0.8-1.3c-0.1-0.1,0-0.3,0.1-0.4c0.1-0.1,0.3,0,0.4,0.1l0.8,1.3
				C8,16,8,16.2,7.8,16.3C7.8,16.3,7.8,16.3,7.7,16.3z"/>
		</g>
		<g>
			<path style="fill:#4B4A4A;" d="M3,8.7c-0.1,0-0.2,0-0.3-0.1L1.9,7.2C1.8,7.1,1.9,6.9,2,6.8c0.1-0.1,0.3,0,0.4,0.1l0.8,1.3
				c0.1,0.1,0,0.3-0.1,0.4C3.1,8.6,3.1,8.7,3,8.7z"/>
		</g>
	</g>
</g>
</svg>
