<?xml version="1.0" encoding="utf-8"?>
<!-- Generator: Adobe Illustrator 23.0.3, SVG Export Plug-In . SVG Version: 6.00 Build 0)  -->
<svg version="1.1" id="Layer_1" xmlns="http://www.w3.org/2000/svg" xmlns:xlink="http://www.w3.org/1999/xlink" x="0px" y="0px"
	 viewBox="0 0 44.93 44.93" style="enable-background:new 0 0 44.93 44.93;" xml:space="preserve">
<style type="text/css">
	.st0{fill:#FF1D25;}
	.st1{fill:#282827;}
	.st2{fill:#9CCB54;}
	.st3{fill:#FFFFFF;}
	.st4{fill:#282828;}
	.st5{fill:#4C9928;}
	.st6{fill:#58B32D;}
	.st7{fill:#F25500;}
	.st8{fill:#DB0100;}
	.st9{fill:#FC00A6;}
	.st10{fill:#8E30E6;}
	.st11{fill:#2A99F7;}
	.st12{fill:none;stroke:#F25500;stroke-miterlimit:10;}
	.st13{fill:#EEEEEE;}
	.st14{fill:#666666;}
	.st15{fill:#4B4B4B;}
	.st16{fill:#323232;}
	.st17{fill:#F0F0F0;}
	.st18{fill:#B4B4B4;}
	.st19{fill-rule:evenodd;clip-rule:evenodd;fill:#AAAAAA;}
	.st20{fill:#AAAAAA;}
	.st21{fill-rule:evenodd;clip-rule:evenodd;fill:#424242;}
	.st22{fill-rule:evenodd;clip-rule:evenodd;fill:#85F34F;}
	.st23{fill-rule:evenodd;clip-rule:evenodd;fill:#323232;}
	.st24{fill:#717171;}
	.st25{fill:#B32CC3;}
	.st26{fill:#EC8B00;}
	.st27{fill:#8B8B8B;stroke:#8B8B8B;stroke-miterlimit:10;}
	.st28{fill:none;stroke:#666666;stroke-width:2;stroke-miterlimit:10;}
	.st29{clip-path:url(#SVGID_2_);fill:#FFFFFF;}
	.st30{clip-path:url(#SVGID_4_);fill:#FFFFFF;}
	.st31{fill:#FFFFFF;stroke:#58B32D;stroke-width:3;stroke-miterlimit:10;}
	.st32{fill:url(#SVGID_5_);}
	.st33{fill-rule:evenodd;clip-rule:evenodd;fill:#58B32D;stroke:#717171;stroke-miterlimit:10;}
	.st34{fill:url(#SVGID_6_);}
	.st35{fill-rule:evenodd;clip-rule:evenodd;fill:#FF0000;stroke:#717171;stroke-miterlimit:10;}
	.st36{fill:url(#SVGID_7_);}
	.st37{fill-rule:evenodd;clip-rule:evenodd;fill:#8E30E6;stroke:#717171;stroke-miterlimit:10;}
	.st38{fill:url(#SVGID_8_);}
	.st39{fill-rule:evenodd;clip-rule:evenodd;fill:#1119B7;stroke:#717171;stroke-miterlimit:10;}
	.st40{fill:url(#SVGID_9_);}
	.st41{fill-rule:evenodd;clip-rule:evenodd;fill:#2A99F7;stroke:#717171;stroke-miterlimit:10;}
	.st42{fill:url(#SVGID_10_);}
	.st43{fill-rule:evenodd;clip-rule:evenodd;fill:#F7931E;stroke:#717171;stroke-miterlimit:10;}
	.st44{fill-rule:evenodd;clip-rule:evenodd;fill:#58B32D;}
	.st45{fill-rule:evenodd;clip-rule:evenodd;fill:#FF0000;}
	.st46{fill-rule:evenodd;clip-rule:evenodd;fill:#8E30E6;}
	.st47{fill-rule:evenodd;clip-rule:evenodd;fill:#1119B7;}
	.st48{fill-rule:evenodd;clip-rule:evenodd;fill:#2A99F7;}
	.st49{fill-rule:evenodd;clip-rule:evenodd;fill:#F7931E;}
	.st50{fill-rule:evenodd;clip-rule:evenodd;fill:#4D4D4D;}
	.st51{fill:none;stroke:#333333;stroke-width:3;stroke-linecap:round;stroke-miterlimit:10;}
	.st52{fill:none;stroke:#8B8B8B;stroke-width:2;stroke-linecap:round;stroke-miterlimit:10;}
	.st53{fill:#8B8B8B;}
	.st54{fill:#999999;}
	.st55{fill:#282D33;}
	.st56{fill:#191900;}
	.st57{fill:#FFFF00;}
</style>
<g>
	<path class="st27" d="M22.47,0.5c6.07,0,11.56,2.46,15.53,6.43c3.98,3.98,6.43,9.47,6.43,15.53c0,6.07-2.46,11.56-6.43,15.53
		c-3.98,3.98-9.47,6.43-15.53,6.43c-6.07,0-11.56-2.46-15.53-6.43C2.96,34.02,0.5,28.53,0.5,22.47S2.96,10.91,6.93,6.93
		C10.91,2.96,16.4,0.5,22.47,0.5L22.47,0.5z M36.66,8.27c-3.63-3.63-8.65-5.88-14.2-5.88S11.9,4.64,8.27,8.27
		c-3.63,3.63-5.88,8.65-5.88,14.2s2.25,10.56,5.88,14.2c3.63,3.63,8.65,5.88,14.2,5.88c5.54,0,10.56-2.25,14.2-5.88
		c3.63-3.63,5.88-8.65,5.88-14.2C42.54,16.92,40.3,11.9,36.66,8.27z"/>
	<path class="st27" d="M22.47,19.63c0.78,0,1.49,0.32,2,0.83c0.51,0.51,0.83,1.22,0.83,2s-0.32,1.49-0.83,2
		c-0.51,0.51-1.22,0.83-2,0.83s-1.49-0.32-2-0.83c-0.51-0.51-0.83-1.22-0.83-2s0.32-1.49,0.83-2
		C20.98,19.95,21.68,19.63,22.47,19.63L22.47,19.63z M23.13,21.8c-0.17-0.17-0.41-0.28-0.67-0.28c-0.26,0-0.5,0.11-0.67,0.28
		c-0.17,0.17-0.28,0.41-0.28,0.67s0.11,0.5,0.28,0.67s0.41,0.28,0.67,0.28c0.26,0,0.5-0.11,0.67-0.28c0.17-0.17,0.28-0.41,0.28-0.67
		S23.3,21.97,23.13,21.8z"/>
	<path class="st27" d="M24.41,20.17c-0.45,0.26-0.61,0.83-0.35,1.28c0.26,0.45,0.83,0.61,1.28,0.35l11.14-6.43
		c0.45-0.26,0.61-0.83,0.35-1.28c-0.26-0.45-0.83-0.61-1.28-0.35L24.41,20.17z"/>
	<path class="st27" d="M19.07,5.89c-0.13-0.5-0.65-0.8-1.15-0.67s-0.8,0.65-0.67,1.15l3.95,14.74c0.13,0.5,0.65,0.8,1.15,0.67
		s0.8-0.65,0.67-1.15L19.07,5.89z"/>
</g>
<path class="st27" d="M32.76,37.89c0.46,0,0.88,0.19,1.18,0.51c0.3,0.31,0.49,0.75,0.49,1.23c0,0.48-0.19,0.91-0.49,1.23
	c-0.3,0.31-0.72,0.51-1.18,0.51s-0.88-0.19-1.18-0.51c-0.3-0.31-0.49-0.75-0.49-1.23c0-0.48,0.19-0.91,0.49-1.23
	C31.89,38.09,32.3,37.89,32.76,37.89L32.76,37.89z M33.12,39.26c-0.09-0.09-0.22-0.15-0.35-0.15c-0.14,0-0.26,0.06-0.35,0.15
	c-0.09,0.09-0.15,0.23-0.15,0.37c0,0.14,0.06,0.27,0.15,0.37c0.09,0.09,0.22,0.15,0.35,0.15c0.14,0,0.26-0.06,0.35-0.15
	c0.09-0.09,0.15-0.23,0.15-0.37C33.26,39.49,33.21,39.36,33.12,39.26z"/>
</svg>
