<?xml version="1.0" encoding="utf-8"?>
<!-- Generator: Adobe Illustrator 17.1.0, SVG Export Plug-In . SVG Version: 6.00 Build 0)  -->
<!DOCTYPE svg PUBLIC "-//W3C//DTD SVG 1.1//EN" "http://www.w3.org/Graphics/SVG/1.1/DTD/svg11.dtd">
<svg version="1.1" id="Layer_1" xmlns="http://www.w3.org/2000/svg" xmlns:xlink="http://www.w3.org/1999/xlink" x="0px" y="0px"
	 viewBox="0 0 20 20" enable-background="new 0 0 20 20" xml:space="preserve">
<path fill="#FFFFFF" d="M14,13.5c-0.3-0.2-0.7-0.2-1,0l-1.6,1c-0.4,0.2-0.8,0.2-1.2,0c-0.6-0.4-1.5-1.2-2.4-2
	c-0.8-0.8-1.6-1.7-2.1-2.3C5.4,10,5.4,9.5,5.6,9.2l0.9-1.7c0.2-0.3,0.2-0.7,0-1L4,2.4C3.7,2,3.3,1.9,2.8,2c-0.4,0.1-1,0.4-1.6,1
	c-1.8,1.9-2.7,5,4.5,11.8s10.2,5.7,12,3.8c0.6-0.6,0.8-1.2,0.9-1.6c0.1-0.4-0.1-0.9-0.5-1.1C17.2,15.3,15,14.1,14,13.5z"/>
<g>
	<path fill="#FFFFFF" d="M9.5,4.9v0.9c1.1,0,2.1,0.4,2.9,1.2c0.8,0.8,1.2,1.9,1.2,3h0.9c0-1.3-0.5-2.7-1.5-3.7
		C12.1,5.4,10.8,4.9,9.5,4.9z"/>
	<path fill="#FFFFFF" d="M9.5,2.4v1.2c1.6,0,3.2,0.6,4.5,1.9c1.3,1.3,1.9,2.9,1.9,4.6H17c0-2-0.7-3.9-2.2-5.4
		C13.4,3.2,11.5,2.5,9.5,2.4z"/>
	<path fill="#FFFFFF" d="M16.6,2.9C14.6,1,12.1,0,9.5,0v1.4c2.2,0,4.4,0.9,6,2.5c1.7,1.7,2.5,3.9,2.5,6.1h1.4
		C19.5,7.5,18.5,4.9,16.6,2.9z"/>
</g>
</svg>
