<?xml version="1.0" encoding="utf-8"?>
<!-- Generator: Adobe Illustrator 23.0.3, SVG Export Plug-In . SVG Version: 6.00 Build 0)  -->
<svg version="1.1" id="Layer_1" xmlns="http://www.w3.org/2000/svg" xmlns:xlink="http://www.w3.org/1999/xlink" x="0px" y="0px"
	 viewBox="0 0 57 57" style="enable-background:new 0 0 57 57;" xml:space="preserve">
<style type="text/css">
	.st0{fill:#FF1D25;}
	.st1{fill:#282827;}
	.st2{fill:#9CCB54;}
	.st3{fill:#FFFFFF;}
	.st4{fill:#282828;}
	.st5{fill:#4C9928;}
	.st6{fill:#58B32D;}
	.st7{fill:#F25500;}
	.st8{fill:#DB0100;}
	.st9{fill:#FC00A6;}
	.st10{fill:#8E30E6;}
	.st11{fill:#2A99F7;}
	.st12{fill:none;stroke:#F25500;stroke-miterlimit:10;}
	.st13{fill:#EEEEEE;}
	.st14{fill:#666666;}
	.st15{fill:#4B4B4B;}
	.st16{fill:#323232;}
	.st17{fill:#F0F0F0;}
	.st18{fill:#B4B4B4;}
	.st19{fill-rule:evenodd;clip-rule:evenodd;fill:#AAAAAA;}
	.st20{fill:#AAAAAA;}
	.st21{fill-rule:evenodd;clip-rule:evenodd;fill:#424242;}
	.st22{fill-rule:evenodd;clip-rule:evenodd;fill:#85F34F;}
	.st23{fill-rule:evenodd;clip-rule:evenodd;fill:#323232;}
	.st24{fill:#717171;}
	.st25{fill:#B32CC3;}
	.st26{fill:#EC8B00;}
	.st27{fill:#8B8B8B;stroke:#8B8B8B;stroke-miterlimit:10;}
	.st28{fill:none;stroke:#666666;stroke-width:2;stroke-miterlimit:10;}
	.st29{clip-path:url(#SVGID_2_);fill:#FFFFFF;}
	.st30{clip-path:url(#SVGID_4_);fill:#FFFFFF;}
	.st31{fill:#FFFFFF;stroke:#58B32D;stroke-width:3;stroke-miterlimit:10;}
	.st32{fill:url(#SVGID_5_);}
	.st33{fill-rule:evenodd;clip-rule:evenodd;fill:#58B32D;stroke:#717171;stroke-miterlimit:10;}
	.st34{fill:url(#SVGID_6_);}
	.st35{fill-rule:evenodd;clip-rule:evenodd;fill:#FF0000;stroke:#717171;stroke-miterlimit:10;}
	.st36{fill:url(#SVGID_7_);}
	.st37{fill-rule:evenodd;clip-rule:evenodd;fill:#8E30E6;stroke:#717171;stroke-miterlimit:10;}
	.st38{fill:url(#SVGID_8_);}
	.st39{fill-rule:evenodd;clip-rule:evenodd;fill:#1119B7;stroke:#717171;stroke-miterlimit:10;}
	.st40{fill:url(#SVGID_9_);}
	.st41{fill-rule:evenodd;clip-rule:evenodd;fill:#2A99F7;stroke:#717171;stroke-miterlimit:10;}
	.st42{fill:url(#SVGID_10_);}
	.st43{fill-rule:evenodd;clip-rule:evenodd;fill:#F7931E;stroke:#717171;stroke-miterlimit:10;}
	.st44{fill-rule:evenodd;clip-rule:evenodd;fill:#58B32D;}
	.st45{fill-rule:evenodd;clip-rule:evenodd;fill:#FF0000;}
	.st46{fill-rule:evenodd;clip-rule:evenodd;fill:#8E30E6;}
	.st47{fill-rule:evenodd;clip-rule:evenodd;fill:#1119B7;}
	.st48{fill-rule:evenodd;clip-rule:evenodd;fill:#2A99F7;}
	.st49{fill-rule:evenodd;clip-rule:evenodd;fill:#F7931E;}
	.st50{fill-rule:evenodd;clip-rule:evenodd;fill:#4D4D4D;}
	.st51{fill:none;stroke:#333333;stroke-width:3;stroke-linecap:round;stroke-miterlimit:10;}
	.st52{fill:none;stroke:#8B8B8B;stroke-width:2;stroke-linecap:round;stroke-miterlimit:10;}
	.st53{fill:#8B8B8B;}
	.st54{fill:#999999;}
	.st55{fill:#282D33;}
	.st56{fill:#191900;}
	.st57{fill:#FFFF00;}
</style>
<g>
	<circle class="st44" cx="28.5" cy="28.5" r="28.5"/>
	<path class="st3" d="M36.41,35.57c-0.62-0.34-1.38-0.31-1.98,0.07l-3.04,1.93c-0.68,0.43-1.55,0.41-2.2-0.07
		c-1.12-0.83-2.93-2.22-4.51-3.71c-1.58-1.49-3.07-3.22-3.96-4.29c-0.51-0.62-0.59-1.48-0.19-2.19l1.75-3.14
		c0.35-0.62,0.33-1.38-0.05-1.98l-4.76-7.62c-0.46-0.74-1.35-1.08-2.18-0.85c-0.81,0.22-1.87,0.74-2.95,1.89
		c-3.4,3.6-5.09,9.55,8.44,22.33s19.37,10.75,22.77,7.15c1.09-1.15,1.54-2.23,1.72-3.06c0.18-0.85-0.21-1.71-0.97-2.12
		C42.41,38.85,38.31,36.61,36.41,35.57z"/>
	<g>
		<path class="st3" d="M28,19.22l0,1.76c1.99,0.03,3.98,0.8,5.49,2.31c1.57,1.57,2.34,3.65,2.31,5.71l1.76,0
			c0.03-2.52-0.91-5.04-2.82-6.96C32.87,20.18,30.44,19.25,28,19.22z"/>
		<path class="st3" d="M28,14.6l0,2.2c3.06,0.03,6.12,1.2,8.45,3.53c2.39,2.39,3.56,5.53,3.53,8.67l2.2,0
			c0.03-3.7-1.36-7.41-4.18-10.22C35.24,16.02,31.63,14.63,28,14.6z"/>
		<path class="st3" d="M41.27,15.51c-3.66-3.66-8.46-5.5-13.27-5.53v2.64c4.13,0.03,8.25,1.61,11.4,4.76
			c3.2,3.2,4.78,7.42,4.75,11.62l2.64,0C46.82,24.12,44.98,19.23,41.27,15.51z"/>
	</g>
</g>
</svg>
