<?xml version="1.0" encoding="utf-8"?>
<!-- Generator: Adobe Illustrator 23.0.3, SVG Export Plug-In . SVG Version: 6.00 Build 0)  -->
<svg version="1.1" id="Layer_1" xmlns="http://www.w3.org/2000/svg" xmlns:xlink="http://www.w3.org/1999/xlink" x="0px" y="0px"
	 viewBox="0 0 49.17 44.7" style="enable-background:new 0 0 49.17 44.7;" xml:space="preserve">
<style type="text/css">
	.st0{fill:#FF1D25;}
	.st1{fill:#282827;}
	.st2{fill:#9CCB54;}
	.st3{fill:#FFFFFF;}
	.st4{fill:#282828;}
	.st5{fill:#4C9928;}
	.st6{fill:#58B32D;}
	.st7{fill:#F25500;}
	.st8{fill:#DB0100;}
	.st9{fill:#FC00A6;}
	.st10{fill:#8E30E6;}
	.st11{fill:#2A99F7;}
	.st12{fill:none;stroke:#F25500;stroke-miterlimit:10;}
	.st13{fill:#EEEEEE;}
	.st14{fill:#666666;}
	.st15{fill:#4B4B4B;}
	.st16{fill:#323232;}
	.st17{fill:#F0F0F0;}
	.st18{fill:#B4B4B4;}
	.st19{fill-rule:evenodd;clip-rule:evenodd;fill:#AAAAAA;}
	.st20{fill:#AAAAAA;}
	.st21{fill-rule:evenodd;clip-rule:evenodd;fill:#424242;}
	.st22{fill-rule:evenodd;clip-rule:evenodd;fill:#85F34F;}
	.st23{fill-rule:evenodd;clip-rule:evenodd;fill:#323232;}
	.st24{fill:#717171;}
	.st25{fill:#B32CC3;}
	.st26{fill:#EC8B00;}
	.st27{fill:#8B8B8B;stroke:#8B8B8B;stroke-miterlimit:10;}
	.st28{fill:none;stroke:#666666;stroke-width:2;stroke-miterlimit:10;}
	.st29{clip-path:url(#SVGID_2_);fill:#FFFFFF;}
	.st30{clip-path:url(#SVGID_4_);fill:#FFFFFF;}
	.st31{fill:#FFFFFF;stroke:#58B32D;stroke-width:3;stroke-miterlimit:10;}
	.st32{fill:url(#SVGID_5_);}
	.st33{fill-rule:evenodd;clip-rule:evenodd;fill:#58B32D;stroke:#717171;stroke-miterlimit:10;}
	.st34{fill:url(#SVGID_6_);}
	.st35{fill-rule:evenodd;clip-rule:evenodd;fill:#FF0000;stroke:#717171;stroke-miterlimit:10;}
	.st36{fill:url(#SVGID_7_);}
	.st37{fill-rule:evenodd;clip-rule:evenodd;fill:#8E30E6;stroke:#717171;stroke-miterlimit:10;}
	.st38{fill:url(#SVGID_8_);}
	.st39{fill-rule:evenodd;clip-rule:evenodd;fill:#1119B7;stroke:#717171;stroke-miterlimit:10;}
	.st40{fill:url(#SVGID_9_);}
	.st41{fill-rule:evenodd;clip-rule:evenodd;fill:#2A99F7;stroke:#717171;stroke-miterlimit:10;}
	.st42{fill:url(#SVGID_10_);}
	.st43{fill-rule:evenodd;clip-rule:evenodd;fill:#F7931E;stroke:#717171;stroke-miterlimit:10;}
	.st44{fill-rule:evenodd;clip-rule:evenodd;fill:#58B32D;}
	.st45{fill-rule:evenodd;clip-rule:evenodd;fill:#FF0000;}
	.st46{fill-rule:evenodd;clip-rule:evenodd;fill:#8E30E6;}
	.st47{fill-rule:evenodd;clip-rule:evenodd;fill:#1119B7;}
	.st48{fill-rule:evenodd;clip-rule:evenodd;fill:#2A99F7;}
	.st49{fill-rule:evenodd;clip-rule:evenodd;fill:#F7931E;}
	.st50{fill-rule:evenodd;clip-rule:evenodd;fill:#4D4D4D;}
	.st51{fill:none;stroke:#333333;stroke-width:3;stroke-linecap:round;stroke-miterlimit:10;}
	.st52{fill:none;stroke:#8B8B8B;stroke-width:2;stroke-linecap:round;stroke-miterlimit:10;}
	.st53{fill:#8B8B8B;}
	.st54{fill:#999999;}
	.st55{fill:#282D33;}
	.st56{fill:#191900;}
	.st57{fill:#FFFF00;}
</style>
<path class="st28" d="M1,8.23v21.05c0,3.99,3.87,7.2,8.65,7.2h0.42v6.45c0,0,8.93-5.41,9.72-5.93c0.78-0.51,0.78-0.52,2.42-0.52
	h17.31c4.77,0,8.65-3.21,8.65-7.2V8.23c0-3.99-3.88-7.23-8.65-7.23H9.65C4.88,1,1,4.24,1,8.23z M33.65,18.29
	c0-1.83,1.58-3.31,3.54-3.31c1.96,0,3.54,1.48,3.54,3.31c0,1.83-1.58,3.31-3.54,3.31C35.23,21.6,33.65,20.12,33.65,18.29z
	 M21.23,18.29c0-1.83,1.58-3.31,3.54-3.31s3.54,1.48,3.54,3.31c0,1.83-1.58,3.31-3.54,3.31S21.23,20.12,21.23,18.29z M8.82,18.29
	c0-1.83,1.58-3.31,3.54-3.31c1.96,0,3.54,1.48,3.54,3.31c0,1.83-1.58,3.31-3.54,3.31C10.4,21.6,8.82,20.12,8.82,18.29z"/>
</svg>
