<?xml version="1.0" encoding="utf-8"?>
<!-- Generator: Adobe Illustrator 17.1.0, SVG Export Plug-In . SVG Version: 6.00 Build 0)  -->
<!DOCTYPE svg PUBLIC "-//W3C//DTD SVG 1.1//EN" "http://www.w3.org/Graphics/SVG/1.1/DTD/svg11.dtd">
<svg version="1.1" id="Layer_1" xmlns="http://www.w3.org/2000/svg" xmlns:xlink="http://www.w3.org/1999/xlink" x="0px" y="0px"
	 viewBox="0 0 17 17" enable-background="new 0 0 17 17" xml:space="preserve">
<path fill="#717171" d="M17,14.4L15.6,2.3c0-0.8-0.6-1.4-1.4-1.4H8.5H2.8c-0.8,0-1.4,0.6-1.4,1.4L0,14.4c0,0.1,0,0.2,0,0.3
	c0,0.8,0.6,1.4,1.4,1.4h7.1h7.1c0.8,0,1.4-0.6,1.4-1.4C17,14.6,17,14.5,17,14.4z M12,4.3v0.7c0,1.9-1.6,3.4-3.5,3.4S5,7,5,5.1V4.3
	c-0.4-0.1-0.7-0.5-0.7-1c0-0.6,0.5-1,1.1-1s1.1,0.5,1.1,1v1.7c0,1.1,1,2.1,2.1,2.1s2.1-0.9,2.1-2.1V3.4c0-0.6,0.5-1,1.1-1
	c0.6,0,1.1,0.5,1.1,1C12.7,3.8,12.5,4.2,12,4.3z"/>
</svg>
