<?xml version="1.0" encoding="utf-8"?>
<!-- Generator: Adobe Illustrator 17.1.0, SVG Export Plug-In . SVG Version: 6.00 Build 0)  -->
<!DOCTYPE svg PUBLIC "-//W3C//DTD SVG 1.1//EN" "http://www.w3.org/Graphics/SVG/1.1/DTD/svg11.dtd">
<svg version="1.1" id="Layer_1" xmlns="http://www.w3.org/2000/svg" xmlns:xlink="http://www.w3.org/1999/xlink" x="0px" y="0px"
	 viewBox="0 0 9 10" enable-background="new 0 0 9 10" xml:space="preserve">
<path fill="#5BB031" d="M8.9,8.5c0,0.8-0.6,1.5-1.4,1.5C6.7,10,6,9.3,6,8.5c0-0.1,0-0.2,0-0.3L2.6,6.1c-0.3,0.3-0.6,0.4-1,0.4
	C0.7,6.5,0.1,5.9,0.1,5c0-0.8,0.6-1.5,1.5-1.5c0.4,0,0.7,0.2,1,0.4L6,1.9c0-0.1,0-0.2,0-0.4C6,0.7,6.6,0,7.5,0s1.5,0.7,1.5,1.5
	S8.3,3,7.5,3c-0.4,0-0.7-0.2-1-0.4L3,4.7C3,4.8,3,4.9,3,5c0,0.1,0,0.2,0,0.4l3.5,2.1c0.2-0.3,0.6-0.4,1-0.4C8.3,7.1,8.9,7.7,8.9,8.5
	z M1.5,4.3C1.1,4.3,0.8,4.6,0.8,5c0,0.4,0.3,0.8,0.8,0.8S2.3,5.5,2.3,5C2.3,4.6,1.9,4.3,1.5,4.3z M7.4,0.8C7,0.8,6.7,1.1,6.7,1.6
	S7,2.3,7.4,2.3c0.4,0,0.8-0.3,0.8-0.8S7.9,0.8,7.4,0.8z M7.4,7.8C7,7.8,6.7,8.1,6.7,8.5c0,0.4,0.3,0.8,0.8,0.8
	c0.4,0,0.8-0.3,0.8-0.8C8.2,8.1,7.9,7.8,7.4,7.8z"/>
</svg>
