<?xml version="1.0" encoding="utf-8"?>
<!-- Generator: Adobe Illustrator 23.0.3, SVG Export Plug-In . SVG Version: 6.00 Build 0)  -->
<svg version="1.1" id="Layer_1" xmlns="http://www.w3.org/2000/svg" xmlns:xlink="http://www.w3.org/1999/xlink" x="0px" y="0px"
	 viewBox="0 0 39.42 44.35" style="enable-background:new 0 0 39.42 44.35;" xml:space="preserve">
<style type="text/css">
	.st0{fill:#FF1D25;}
	.st1{fill:#282827;}
	.st2{fill:#9CCB54;}
	.st3{fill:#FFFFFF;}
	.st4{fill:#282828;}
	.st5{fill:#4C9928;}
	.st6{fill:#58B32D;}
	.st7{fill:#F25500;}
	.st8{fill:#DB0100;}
	.st9{fill:#FC00A6;}
	.st10{fill:#8E30E6;}
	.st11{fill:#2A99F7;}
	.st12{fill:none;stroke:#F25500;stroke-miterlimit:10;}
	.st13{fill:#EEEEEE;}
	.st14{fill:#666666;}
	.st15{fill:#4B4B4B;}
	.st16{fill:#323232;}
	.st17{fill:#F0F0F0;}
	.st18{fill:#B4B4B4;}
	.st19{fill-rule:evenodd;clip-rule:evenodd;fill:#AAAAAA;}
	.st20{fill:#AAAAAA;}
	.st21{fill-rule:evenodd;clip-rule:evenodd;fill:#424242;}
	.st22{fill-rule:evenodd;clip-rule:evenodd;fill:#85F34F;}
	.st23{fill-rule:evenodd;clip-rule:evenodd;fill:#323232;}
	.st24{fill:#717171;}
	.st25{fill:#B32CC3;}
	.st26{fill:#EC8B00;}
	.st27{fill:#8B8B8B;stroke:#8B8B8B;stroke-miterlimit:10;}
	.st28{fill:none;stroke:#666666;stroke-width:2;stroke-miterlimit:10;}
	.st29{clip-path:url(#SVGID_2_);fill:#FFFFFF;}
	.st30{clip-path:url(#SVGID_4_);fill:#FFFFFF;}
	.st31{fill:#FFFFFF;stroke:#58B32D;stroke-width:3;stroke-miterlimit:10;}
	.st32{fill:url(#SVGID_5_);}
	.st33{fill-rule:evenodd;clip-rule:evenodd;fill:#58B32D;stroke:#717171;stroke-miterlimit:10;}
	.st34{fill:url(#SVGID_6_);}
	.st35{fill-rule:evenodd;clip-rule:evenodd;fill:#FF0000;stroke:#717171;stroke-miterlimit:10;}
	.st36{fill:url(#SVGID_7_);}
	.st37{fill-rule:evenodd;clip-rule:evenodd;fill:#8E30E6;stroke:#717171;stroke-miterlimit:10;}
	.st38{fill:url(#SVGID_8_);}
	.st39{fill-rule:evenodd;clip-rule:evenodd;fill:#1119B7;stroke:#717171;stroke-miterlimit:10;}
	.st40{fill:url(#SVGID_9_);}
	.st41{fill-rule:evenodd;clip-rule:evenodd;fill:#2A99F7;stroke:#717171;stroke-miterlimit:10;}
	.st42{fill:url(#SVGID_10_);}
	.st43{fill-rule:evenodd;clip-rule:evenodd;fill:#F7931E;stroke:#717171;stroke-miterlimit:10;}
	.st44{fill-rule:evenodd;clip-rule:evenodd;fill:#58B32D;}
	.st45{fill-rule:evenodd;clip-rule:evenodd;fill:#FF0000;}
	.st46{fill-rule:evenodd;clip-rule:evenodd;fill:#8E30E6;}
	.st47{fill-rule:evenodd;clip-rule:evenodd;fill:#1119B7;}
	.st48{fill-rule:evenodd;clip-rule:evenodd;fill:#2A99F7;}
	.st49{fill-rule:evenodd;clip-rule:evenodd;fill:#F7931E;}
	.st50{fill-rule:evenodd;clip-rule:evenodd;fill:#4D4D4D;}
	.st51{fill:none;stroke:#333333;stroke-width:3;stroke-linecap:round;stroke-miterlimit:10;}
	.st52{fill:none;stroke:#8B8B8B;stroke-width:2;stroke-linecap:round;stroke-miterlimit:10;}
	.st53{fill:#8B8B8B;}
	.st54{fill:#999999;}
	.st55{fill:#282D33;}
	.st56{fill:#191900;}
	.st57{fill:#FFFF00;}
</style>
<path class="st53" d="M39.2,37.89c0,3.57-2.85,6.46-6.37,6.46c-3.51,0-6.37-2.9-6.37-6.46c0-0.56,0.11-1,0.22-1.45l-15.59-9.25
	c-1.21,1.11-2.75,1.78-4.5,1.78C2.96,28.97,0,25.96,0,22.29c0-3.68,2.86-6.69,6.48-6.69c1.76,0,3.29,0.67,4.5,1.78l15.48-9.14
	c-0.11-0.56-0.22-1-0.22-1.56c0-3.68,2.97-6.69,6.59-6.69c3.62,0,6.59,3.01,6.59,6.69c0,3.68-2.97,6.69-6.59,6.69
	c-1.76,0-3.29-0.67-4.5-1.78l-15.48,9.14c0.11,0.56,0.22,1,0.22,1.56c0,0.56-0.11,1-0.22,1.56l15.7,9.25
	c1.1-1.11,2.64-1.67,4.28-1.67C36.35,31.42,39.2,34.32,39.2,37.89z M6.49,18.97c-1.87,0-3.38,1.51-3.38,3.38
	c0,1.87,1.51,3.38,3.38,3.38s3.38-1.51,3.38-3.38C9.87,20.49,8.35,18.97,6.49,18.97z M32.74,3.53c-1.87,0-3.38,1.51-3.38,3.38
	s1.51,3.38,3.38,3.38s3.38-1.51,3.38-3.38S34.61,3.53,32.74,3.53z M32.74,34.41c-1.87,0-3.38,1.51-3.38,3.38
	c0,1.87,1.51,3.38,3.38,3.38s3.38-1.51,3.38-3.38C36.12,35.93,34.61,34.41,32.74,34.41z"/>
</svg>
