<?xml version="1.0" encoding="utf-8"?>
<!-- Generator: Adobe Illustrator 17.1.0, SVG Export Plug-In . SVG Version: 6.00 Build 0)  -->
<!DOCTYPE svg PUBLIC "-//W3C//DTD SVG 1.1//EN" "http://www.w3.org/Graphics/SVG/1.1/DTD/svg11.dtd">
<svg version="1.1" id="Layer_1" xmlns="http://www.w3.org/2000/svg" xmlns:xlink="http://www.w3.org/1999/xlink" x="0px" y="0px"
	 viewBox="0 0 25 19" style="enable-background:new 0 0 25 19;" xml:space="preserve">
<g>
	<g>
		<g>
			<g>
				<path style="fill:#4A4949;" d="M2.6,16.5c0-1.2,1-2.2,2.2-2.2s2.2,1,2.2,2.2c0,1.2-1,2.2-2.2,2.2S2.6,17.7,2.6,16.5z M3.3,16.5
					c0,0.8,0.7,1.5,1.5,1.5c0.8,0,1.5-0.7,1.5-1.5c0-0.8-0.7-1.5-1.5-1.5C4,15,3.3,15.6,3.3,16.5z"/>
			</g>
			<g>
				<path style="fill:#4A4949;" d="M18.2,16.5c0-1.2,1-2.2,2.2-2.2c1.2,0,2.2,1,2.2,2.2c0,1.2-1,2.2-2.2,2.2
					C19.1,18.6,18.2,17.7,18.2,16.5z M18.9,16.5c0,0.8,0.7,1.5,1.5,1.5c0.8,0,1.5-0.7,1.5-1.5c0-0.8-0.7-1.5-1.5-1.5
					C19.5,15,18.9,15.6,18.9,16.5z"/>
			</g>
			<g>
				<path style="fill:#4A4949;" d="M8.3,16.5h10.2c0.2,0,0.4-0.2,0.4-0.4c0-0.2-0.2-0.4-0.4-0.4H8.3c-0.2,0-0.4,0.2-0.4,0.4
					C7.9,16.3,8.1,16.5,8.3,16.5z"/>
			</g>
			<g>
				<path style="fill:#4A4949;" d="M22.2,16.5h1.2c0.9,0,1.6-0.7,1.6-1.6c0,0,0,0,0,0l-0.2-4c0-0.2-0.2-0.3-0.4-0.3
					c-0.2,0-0.3,0.2-0.3,0.4l0.2,4c0,0.5-0.4,0.9-0.9,0.9h-1.2c-0.2,0-0.4,0.2-0.4,0.4C21.8,16.3,22,16.5,22.2,16.5z"/>
			</g>
			<g>
				<path style="fill:#4A4949;" d="M1.6,16.5H3c0.2,0,0.4-0.2,0.4-0.4c0-0.2-0.2-0.4-0.4-0.4H1.6c-0.3-0.2-0.8-1.9-0.9-2.8l3.9-1
					c0.1,0,0.2-0.1,0.2-0.1L7,9h3.6c0.2,0,0.4-0.2,0.4-0.4s-0.2-0.4-0.4-0.4H6.8c-0.1,0-0.2,0.1-0.3,0.1l-2.2,3l-4.1,1
					c-0.2,0-0.3,0.2-0.3,0.3C0,13,0.4,16.5,1.6,16.5z"/>
			</g>
		</g>
		<g>
			<path style="fill:#4A4949;" d="M6.1,12.5c-0.1-0.1-0.1-0.2,0-0.3c0-0.1,0.9-1.8,1.2-2.5c0.1-0.1,0.2-0.2,0.3-0.2h2.8
				c0.2,0,0.3,0.1,0.4,0.3l0.2,2.5c0,0.1,0,0.2-0.1,0.3c-0.1,0.1-0.2,0.1-0.3,0.1H6.4C6.2,12.7,6.1,12.6,6.1,12.5z M10,10.2H7.8
				c-0.2,0.4-0.6,1.2-0.8,1.8h3.2L10,10.2z"/>
		</g>
		<g>
			<path style="fill:#4A4949;" d="M12.5,11.2h12c0.2,0,0.4-0.2,0.4-0.4c0-0.2-0.2-0.4-0.4-0.4H12.8l-0.3-1.9c0-0.2-0.2-0.3-0.3-0.3
				h-1.6c-0.2,0-0.4,0.2-0.4,0.4S10.4,9,10.6,9h1.3l0.3,1.9C12.2,11.1,12.3,11.2,12.5,11.2z"/>
		</g>
	</g>
	<g>
		<g>
			<path style="fill:#4A4949;" d="M15.8,3.5c-0.3-0.3-0.5-0.7-0.5-1.1c0-0.4,0.2-0.8,0.5-1.1C16.1,1,16.5,0.8,17,0.8
				c0.5,0,0.9,0.2,1.2,0.4c0.6,0.6,0.5,2.1,0.5,2.4c0,0.2-0.2,0.3-0.3,0.3c0,0-0.2,0-0.5,0l0,0C16.8,3.9,16.1,3.8,15.8,3.5z
				 M17.7,1.8c-0.2-0.2-0.5-0.3-0.7-0.3c-0.3,0-0.5,0.1-0.7,0.3C16.1,1.9,16,2.2,16,2.4s0.1,0.4,0.3,0.6c0.2,0.1,0.7,0.3,1.6,0.3
				c0.1,0,0.1,0,0.1,0C18,2.7,18,2,17.7,1.8z"/>
		</g>
		<g>
			<path style="fill:#4A4949;" d="M18.3,3.9c-0.2,0-0.3-0.1-0.3-0.3c0-0.3-0.1-2,0.6-2.6c0.4-0.3,0.8-0.5,1.3-0.5
				c0.5,0,1,0.2,1.3,0.5c0.4,0.3,0.6,0.8,0.6,1.2s-0.2,0.9-0.6,1.2c-0.4,0.3-1.2,0.5-2.3,0.5C18.6,3.9,18.3,3.9,18.3,3.9z M19,1.5
				c-0.3,0.2-0.4,1.1-0.4,1.7c0.1,0,0.1,0,0.2,0c1.1,0,1.7-0.2,1.9-0.3c0.2-0.2,0.3-0.4,0.3-0.7c0-0.3-0.1-0.5-0.3-0.7
				c-0.2-0.2-0.5-0.3-0.9-0.3C19.6,1.2,19.3,1.3,19,1.5z"/>
		</g>
		<g>
			<path style="fill:#4A4949;" d="M20.1,7.9c0.1,0,0.3-0.1,0.3-0.2c0-0.1,0.8-1.9,0-3.3c-0.4-0.7-1.1-1.1-2-1.2c-0.1,0-0.1,0-0.2,0
				c-0.1,0-2.4,1-2.4,3.1c0,0.2,0.2,0.4,0.4,0.3c0.2,0,0.4-0.2,0.3-0.4c0-1.4,1.5-2.2,1.9-2.4c0.7,0.1,1.1,0.4,1.4,0.8
				c0.6,1,0,2.6,0,2.6c-0.1,0.2,0,0.4,0.2,0.5C20,7.9,20,7.9,20.1,7.9z"/>
		</g>
		<g>
			<path style="fill:#4A4949;" d="M12.6,6.4h9.6c0.2,0,0.4-0.2,0.4-0.4c0-0.2-0.2-0.4-0.4-0.4h-9.2V3.9h10.9v1.7H23
				c-0.2,0-0.4,0.2-0.4,0.4c0,0.2,0.2,0.4,0.4,0.4h1.2c0.2,0,0.4-0.2,0.4-0.4V3.6c0-0.2-0.2-0.4-0.4-0.4H12.6
				c-0.2,0-0.4,0.2-0.4,0.4V6C12.2,6.2,12.4,6.4,12.6,6.4z"/>
		</g>
		<g>
			<path style="fill:#4A4949;" d="M13.1,11.2h10.6c0.2,0,0.4-0.2,0.4-0.4V6c0-0.2-0.2-0.4-0.4-0.4c-0.2,0-0.4,0.2-0.4,0.4v4.5h-9.9
				V6c0-0.2-0.2-0.4-0.4-0.4S12.7,5.8,12.7,6v4.9C12.7,11.1,12.9,11.2,13.1,11.2z"/>
		</g>
		<g>
			<path style="fill:#4A4949;" d="M18.3,11.2c0.2,0,0.4-0.2,0.4-0.4V3.6c0-0.2-0.2-0.4-0.4-0.4c-0.2,0-0.4,0.2-0.4,0.4v7.3
				C18,11.1,18.2,11.2,18.3,11.2z"/>
		</g>
	</g>
	<g>
		<path style="fill:#4A4949;" d="M12.9,13.6h11.6c0.2,0,0.4-0.2,0.4-0.4c0-0.2-0.2-0.4-0.4-0.4H13.2l-0.3-2c0-0.2-0.2-0.3-0.4-0.3
			c-0.2,0-0.3,0.2-0.3,0.4l0.4,2.3C12.6,13.4,12.7,13.6,12.9,13.6z"/>
	</g>
</g>
</svg>
