<?xml version="1.0" encoding="utf-8"?>
<!-- Generator: Adobe Illustrator 23.0.3, SVG Export Plug-In . SVG Version: 6.00 Build 0)  -->
<svg version="1.1" id="Layer_1" xmlns="http://www.w3.org/2000/svg" xmlns:xlink="http://www.w3.org/1999/xlink" x="0px" y="0px"
	 viewBox="0 0 46.2 45" style="enable-background:new 0 0 46.2 45;" xml:space="preserve">
<style type="text/css">
	.st0{fill:#FF1D25;}
	.st1{fill:#282827;}
	.st2{fill:#9CCB54;}
	.st3{fill:#FFFFFF;}
	.st4{fill:#282828;}
	.st5{fill:#4C9928;}
	.st6{fill:#58B32D;}
	.st7{fill:#F25500;}
	.st8{fill:#DB0100;}
	.st9{fill:#FC00A6;}
	.st10{fill:#8E30E6;}
	.st11{fill:#2A99F7;}
	.st12{fill:none;stroke:#F25500;stroke-miterlimit:10;}
	.st13{fill:#EEEEEE;}
	.st14{fill:#666666;}
	.st15{fill:#4B4B4B;}
	.st16{fill:#323232;}
	.st17{fill:#F0F0F0;}
	.st18{fill:#B4B4B4;}
	.st19{fill-rule:evenodd;clip-rule:evenodd;fill:#AAAAAA;}
	.st20{fill:#AAAAAA;}
	.st21{fill-rule:evenodd;clip-rule:evenodd;fill:#424242;}
	.st22{fill-rule:evenodd;clip-rule:evenodd;fill:#85F34F;}
	.st23{fill-rule:evenodd;clip-rule:evenodd;fill:#323232;}
	.st24{fill:#717171;}
	.st25{fill:#B32CC3;}
	.st26{fill:#EC8B00;}
	.st27{fill:#8B8B8B;stroke:#8B8B8B;stroke-miterlimit:10;}
	.st28{fill:none;stroke:#666666;stroke-width:2;stroke-miterlimit:10;}
	.st29{clip-path:url(#SVGID_2_);fill:#FFFFFF;}
	.st30{clip-path:url(#SVGID_4_);fill:#FFFFFF;}
	.st31{fill:#FFFFFF;stroke:#58B32D;stroke-width:3;stroke-miterlimit:10;}
	.st32{fill:url(#SVGID_5_);}
	.st33{fill-rule:evenodd;clip-rule:evenodd;fill:#58B32D;stroke:#717171;stroke-miterlimit:10;}
	.st34{fill:url(#SVGID_6_);}
	.st35{fill-rule:evenodd;clip-rule:evenodd;fill:#FF0000;stroke:#717171;stroke-miterlimit:10;}
	.st36{fill:url(#SVGID_7_);}
	.st37{fill-rule:evenodd;clip-rule:evenodd;fill:#8E30E6;stroke:#717171;stroke-miterlimit:10;}
	.st38{fill:url(#SVGID_8_);}
	.st39{fill-rule:evenodd;clip-rule:evenodd;fill:#1119B7;stroke:#717171;stroke-miterlimit:10;}
	.st40{fill:url(#SVGID_9_);}
	.st41{fill-rule:evenodd;clip-rule:evenodd;fill:#2A99F7;stroke:#717171;stroke-miterlimit:10;}
	.st42{fill:url(#SVGID_10_);}
	.st43{fill-rule:evenodd;clip-rule:evenodd;fill:#F7931E;stroke:#717171;stroke-miterlimit:10;}
	.st44{fill-rule:evenodd;clip-rule:evenodd;fill:#58B32D;}
	.st45{fill-rule:evenodd;clip-rule:evenodd;fill:#FF0000;}
	.st46{fill-rule:evenodd;clip-rule:evenodd;fill:#8E30E6;}
	.st47{fill-rule:evenodd;clip-rule:evenodd;fill:#1119B7;}
	.st48{fill-rule:evenodd;clip-rule:evenodd;fill:#2A99F7;}
	.st49{fill-rule:evenodd;clip-rule:evenodd;fill:#F7931E;}
	.st50{fill-rule:evenodd;clip-rule:evenodd;fill:#4D4D4D;}
	.st51{fill:none;stroke:#333333;stroke-width:3;stroke-linecap:round;stroke-miterlimit:10;}
	.st52{fill:none;stroke:#8B8B8B;stroke-width:2;stroke-linecap:round;stroke-miterlimit:10;}
	.st53{fill:#8B8B8B;}
	.st54{fill:#999999;}
	.st55{fill:#282D33;}
	.st56{fill:#191900;}
	.st57{fill:#FFFF00;}
</style>
<g>
	<path id="border_13_" class="st19" d="M46.2,14.42v26.54c0,1.91-1.61,4.04-3.6,4.04h-39C1.61,45,0,42.87,0,40.96V14.42h2.4v26.62
		c0,1.23,0.44,1.65,1.73,1.65h37.93c1.29,0,1.73-0.42,1.73-1.65l0.04-26.62H46.2z"/>
	<g id="top_3_">
		<g>
			<path class="st20" d="M43.03,3.46H3.17C1.75,3.46,0,5.72,0,7.07v5.62h46.2V7.07C46.2,5.72,44.45,3.46,43.03,3.46z M10.8,11.54
				c-1.66,0-3-1.29-3-2.88c0-1.59,1.34-2.88,3-2.88c1.66,0,3,1.29,3,2.88C13.8,10.25,12.46,11.54,10.8,11.54z M35.4,11.54
				c-1.66,0-3-1.29-3-2.88c0-1.59,1.34-2.88,3-2.88c1.66,0,3,1.29,3,2.88C38.4,10.25,37.06,11.54,35.4,11.54z"/>
		</g>
	</g>
	<g id="dates_1_">
		<g>
			<path class="st20" d="M4.8,24.23h7.8v-4.62H4.8V24.23z M14.4,24.23h7.8v-4.62h-7.8V24.23z M24,24.23h7.8v-4.62H24V24.23z
				 M33.6,24.23h7.8v-4.62h-7.8V24.23z M4.8,31.15h7.8v-4.62H4.8V31.15z M14.4,31.15h7.8v-4.62h-7.8V31.15z M24,31.15h7.8v-4.62H24
				V31.15z M33.6,31.15h7.8v-4.62h-7.8V31.15z M4.8,38.08h7.8v-4.61H4.8V38.08z M14.4,38.08h7.8v-4.61h-7.8V38.08z M24,38.08h7.8
				v-4.61H24V38.08z M33.6,38.08h7.8v-4.61h-7.8V38.08z M0,14.42v1.73h46.2v-1.73H0z"/>
		</g>
	</g>
	<g id="fix">
		<g>
			<path class="st20" d="M10.8,0c-0.99,0-1.2,0.73-1.2,1.64v6.54c0,0.9,0.2,1.64,1.2,1.64S12,9.08,12,8.18V1.64
				C12,0.73,11.79,0,10.8,0z M35.4,0c-0.99,0-1.2,0.73-1.2,1.64v6.54c0,0.9,0.2,1.64,1.2,1.64s1.2-0.73,1.2-1.64V1.64
				C36.6,0.73,36.39,0,35.4,0z"/>
		</g>
	</g>
</g>
</svg>
