<?xml version="1.0" encoding="utf-8"?>
<!-- Generator: Adobe Illustrator 17.1.0, SVG Export Plug-In . SVG Version: 6.00 Build 0)  -->
<!DOCTYPE svg PUBLIC "-//W3C//DTD SVG 1.1//EN" "http://www.w3.org/Graphics/SVG/1.1/DTD/svg11.dtd">
<svg version="1.1" id="Layer_1" xmlns="http://www.w3.org/2000/svg" xmlns:xlink="http://www.w3.org/1999/xlink" x="0px" y="0px"
	 viewBox="0 0 5 5" enable-background="new 0 0 5 5" xml:space="preserve">
<g>
	<path id="border_13_" d="M5,1.6v2.9c0,0.2-0.2,0.4-0.4,0.4H0.4C0.2,4.9,0,4.7,0,4.5V1.6h0.3v2.9c0,0.1,0,0.2,0.2,0.2h4.1
		c0.1,0,0.2,0,0.2-0.2l0-2.9H5z"/>
	<g id="top_3_">
		<g>
			<path d="M4.7,0.4H0.3C0.2,0.4,0,0.7,0,0.8v0.6h5V0.8C5,0.7,4.8,0.4,4.7,0.4z M1.2,1.3C1,1.3,0.8,1.2,0.8,1S1,0.7,1.2,0.7
				S1.5,0.8,1.5,1S1.3,1.3,1.2,1.3z M3.8,1.3C3.7,1.3,3.5,1.2,3.5,1s0.1-0.3,0.3-0.3C4,0.7,4.2,0.8,4.2,1S4,1.3,3.8,1.3z"/>
		</g>
	</g>
	<g id="dates_1_">
		<g>
			<path d="M0.5,2.7h0.8V2.2H0.5V2.7z M1.6,2.7h0.8V2.2H1.6C1.6,2.2,1.6,2.7,1.6,2.7z M2.6,2.7h0.8V2.2H2.6V2.7z M3.6,2.7h0.8V2.2
				H3.6V2.7z M0.5,3.4h0.8V2.9H0.5V3.4z M1.6,3.4h0.8V2.9H1.6C1.6,2.9,1.6,3.4,1.6,3.4z M2.6,3.4h0.8V2.9H2.6V3.4z M3.6,3.4h0.8V2.9
				H3.6V3.4z M0.5,4.2h0.8V3.7H0.5V4.2z M1.6,4.2h0.8V3.7H1.6C1.6,3.7,1.6,4.2,1.6,4.2z M2.6,4.2h0.8V3.7H2.6V4.2z M3.6,4.2h0.8V3.7
				H3.6V4.2z M0,1.6v0.2h5V1.6H0z"/>
		</g>
	</g>
	<g id="fix">
		<g>
			<path d="M1.2,0.1C1.1,0.1,1,0.1,1,0.2V1c0,0.1,0,0.2,0.1,0.2S1.3,1,1.3,1V0.2C1.3,0.1,1.3,0.1,1.2,0.1z M3.8,0.1
				c-0.1,0-0.1,0.1-0.1,0.2V1c0,0.1,0,0.2,0.1,0.2S4,1,4,1V0.2C4,0.1,3.9,0.1,3.8,0.1z"/>
		</g>
	</g>
</g>
</svg>
