<?xml version="1.0" encoding="utf-8"?>
<!-- Generator: Adobe Illustrator 23.0.3, SVG Export Plug-In . SVG Version: 6.00 Build 0)  -->
<svg version="1.1" id="Layer_1" xmlns="http://www.w3.org/2000/svg" xmlns:xlink="http://www.w3.org/1999/xlink" x="0px" y="0px"
	 viewBox="0 0 45.48 42.64" style="enable-background:new 0 0 45.48 42.64;" xml:space="preserve">
<style type="text/css">
	.st0{fill:#FF1D25;}
	.st1{fill:#282827;}
	.st2{fill:#9CCB54;}
	.st3{fill:#FFFFFF;}
	.st4{fill:#282828;}
	.st5{fill:#4C9928;}
	.st6{fill:#58B32D;}
	.st7{fill:#F25500;}
	.st8{fill:#DB0100;}
	.st9{fill:#FC00A6;}
	.st10{fill:#8E30E6;}
	.st11{fill:#2A99F7;}
	.st12{fill:none;stroke:#F25500;stroke-miterlimit:10;}
	.st13{fill:#EEEEEE;}
	.st14{fill:#666666;}
	.st15{fill:#4B4B4B;}
	.st16{fill:#323232;}
	.st17{fill:#F0F0F0;}
	.st18{fill:#B4B4B4;}
	.st19{fill-rule:evenodd;clip-rule:evenodd;fill:#AAAAAA;}
	.st20{fill:#AAAAAA;}
	.st21{fill-rule:evenodd;clip-rule:evenodd;fill:#424242;}
	.st22{fill-rule:evenodd;clip-rule:evenodd;fill:#85F34F;}
	.st23{fill-rule:evenodd;clip-rule:evenodd;fill:#323232;}
	.st24{fill:#717171;}
	.st25{fill:#B32CC3;}
	.st26{fill:#EC8B00;}
	.st27{fill:#8B8B8B;stroke:#8B8B8B;stroke-miterlimit:10;}
	.st28{fill:none;stroke:#666666;stroke-width:2;stroke-miterlimit:10;}
	.st29{clip-path:url(#SVGID_2_);fill:#FFFFFF;}
	.st30{clip-path:url(#SVGID_4_);fill:#FFFFFF;}
	.st31{fill:#FFFFFF;stroke:#58B32D;stroke-width:3;stroke-miterlimit:10;}
	.st32{fill:url(#SVGID_5_);}
	.st33{fill-rule:evenodd;clip-rule:evenodd;fill:#58B32D;stroke:#717171;stroke-miterlimit:10;}
	.st34{fill:url(#SVGID_6_);}
	.st35{fill-rule:evenodd;clip-rule:evenodd;fill:#FF0000;stroke:#717171;stroke-miterlimit:10;}
	.st36{fill:url(#SVGID_7_);}
	.st37{fill-rule:evenodd;clip-rule:evenodd;fill:#8E30E6;stroke:#717171;stroke-miterlimit:10;}
	.st38{fill:url(#SVGID_8_);}
	.st39{fill-rule:evenodd;clip-rule:evenodd;fill:#1119B7;stroke:#717171;stroke-miterlimit:10;}
	.st40{fill:url(#SVGID_9_);}
	.st41{fill-rule:evenodd;clip-rule:evenodd;fill:#2A99F7;stroke:#717171;stroke-miterlimit:10;}
	.st42{fill:url(#SVGID_10_);}
	.st43{fill-rule:evenodd;clip-rule:evenodd;fill:#F7931E;stroke:#717171;stroke-miterlimit:10;}
	.st44{fill-rule:evenodd;clip-rule:evenodd;fill:#58B32D;}
	.st45{fill-rule:evenodd;clip-rule:evenodd;fill:#FF0000;}
	.st46{fill-rule:evenodd;clip-rule:evenodd;fill:#8E30E6;}
	.st47{fill-rule:evenodd;clip-rule:evenodd;fill:#1119B7;}
	.st48{fill-rule:evenodd;clip-rule:evenodd;fill:#2A99F7;}
	.st49{fill-rule:evenodd;clip-rule:evenodd;fill:#F7931E;}
	.st50{fill-rule:evenodd;clip-rule:evenodd;fill:#4D4D4D;}
	.st51{fill:none;stroke:#333333;stroke-width:3;stroke-linecap:round;stroke-miterlimit:10;}
	.st52{fill:none;stroke:#8B8B8B;stroke-width:2;stroke-linecap:round;stroke-miterlimit:10;}
	.st53{fill:#8B8B8B;}
	.st54{fill:#999999;}
	.st55{fill:#282D33;}
	.st56{fill:#191900;}
	.st57{fill:#FFFF00;}
</style>
<g>
	<path d="M45.48,17.06v-1.42c0-0.12-0.01-0.23-0.04-0.34l-2.8-11.2V0H2.84v4.09l-2.8,11.2C0.01,15.41,0,15.52,0,15.64v1.42
		c0,2.1,1.15,3.91,2.84,4.89V39.8H0v2.84h45.48V39.8h-2.84V21.95C44.33,20.97,45.48,19.15,45.48,17.06z M40.11,5.69l2.13,8.53h-5.45
		l-1.07-8.53H40.11z M28.43,5.69h4.43l1.07,8.53h-5.5V5.69z M34.11,17.06c0,1.57-1.28,2.84-2.84,2.84c-1.57,0-2.84-1.28-2.84-2.84
		H34.11z M19.9,5.69h5.69v8.53H19.9V5.69z M12.63,5.69h4.43v8.53h-5.5L12.63,5.69z M17.06,17.06c0,1.57-1.28,2.84-2.84,2.84
		c-1.57,0-2.84-1.28-2.84-2.84H17.06z M5.37,5.69h4.39l-1.07,8.53H3.24L5.37,5.69z M2.84,17.06h5.69c0,1.57-1.28,2.84-2.84,2.84
		S2.84,18.62,2.84,17.06z M18.48,39.8H7.11V22.74h11.37V39.8z M19.9,17.06h5.69c0,1.57-1.28,2.84-2.84,2.84
		C21.17,19.9,19.9,18.62,19.9,17.06z M38.38,32.69H22.74v-9.95h15.64V32.69z M39.8,19.9c-1.57,0-2.84-1.28-2.84-2.84h5.69
		C42.64,18.62,41.37,19.9,39.8,19.9z"/>
	<circle cx="15.64" cy="29.85" r="1.42"/>
</g>
</svg>
