<?xml version="1.0" standalone="no"?>
<!DOCTYPE svg PUBLIC "-//W3C//DTD SVG 20010904//EN"
 "http://www.w3.org/TR/2001/REC-SVG-20010904/DTD/svg10.dtd">
<svg version="1.0" xmlns="http://www.w3.org/2000/svg"
 width="512.000000pt" height="512.000000pt" viewBox="0 0 512.000000 512.000000"
 preserveAspectRatio="xMidYMid meet">
<metadata>
Created by potrace 1.11, written by Peter Selinger 2001-2013
</metadata>
<g transform="translate(0.000000,512.000000) scale(0.100000,-0.100000)"
fill="#000000" stroke="none">
<path d="M2 5081 c2 -34 4 -38 19 -30 17 9 38 -5 25 -18 -11 -11 14 -42 29
-37 8 4 15 2 15 -4 0 -5 -7 -13 -17 -16 -14 -6 -14 -9 5 -27 12 -11 22 -25 22
-31 0 -7 7 -3 16 8 15 18 15 18 11 -9 -3 -21 -1 -25 8 -17 9 8 14 6 19 -5 3
-9 10 -14 15 -10 5 3 13 0 17 -6 4 -7 3 -9 -4 -5 -6 3 -13 2 -17 -4 -3 -6 1
-13 10 -16 12 -5 13 -10 4 -20 -8 -10 -5 -15 15 -20 14 -3 26 -10 26 -16 0 -5
-4 -6 -10 -3 -6 4 -7 -1 -3 -12 6 -16 5 -17 -12 -3 -17 14 -17 14 -4 -7 9 -16
16 -19 21 -10 6 9 8 8 9 -3 1 -8 1 -18 0 -22 0 -4 6 -5 14 -2 8 4 15 1 15 -5
0 -6 3 -10 8 -9 12 2 42 -13 42 -22 0 -5 -7 -16 -16 -24 -8 -9 -11 -16 -5 -16
6 0 11 -6 11 -14 0 -17 24 -27 47 -19 15 5 14 3 -2 -10 -11 -9 -15 -17 -10
-17 6 0 4 -4 -4 -9 -10 -7 -4 -9 19 -8 24 2 33 -2 35 -16 2 -9 -1 -15 -6 -11
-5 3 -7 10 -4 15 4 5 2 9 -3 9 -6 0 -12 -7 -16 -15 -3 -8 0 -14 7 -12 7 1 11
-4 9 -11 -2 -10 2 -10 19 -1 12 6 19 7 15 1 -3 -6 0 -13 6 -16 7 -3 6 -4 -4
-3 -9 1 -17 -2 -17 -8 -1 -13 20 -14 39 -1 13 10 13 9 1 -6 -11 -15 -11 -18 0
-19 8 -1 18 -1 22 0 5 1 6 -3 2 -9 -3 -5 -2 -10 3 -10 6 0 13 -7 16 -16 5 -14
4 -15 -9 -4 -10 8 -15 9 -15 2 0 -6 9 -16 20 -22 12 -7 17 -16 13 -27 -4 -11
-3 -14 5 -9 7 4 12 2 12 -4 0 -7 -6 -10 -12 -7 -7 2 -13 10 -13 18 0 15 -14
29 -30 29 -5 0 -4 -4 3 -9 8 -5 15 -20 15 -33 2 -18 7 -24 20 -20 9 2 17 -1
17 -7 0 -6 -8 -11 -17 -12 -10 0 -13 -3 -6 -5 7 -3 21 0 32 5 14 8 22 8 27 -1
4 -7 3 -8 -5 -4 -8 6 -11 0 -8 -21 2 -15 0 -33 -5 -40 -6 -7 -5 -11 4 -9 11 1
20 10 17 19 -6 19 -6 37 1 37 18 0 20 -44 5 -85 -4 -11 2 -7 14 10 12 17 21
23 20 15 -1 -8 -1 -22 0 -30 1 -13 2 -13 11 0 9 13 10 13 10 0 0 -13 1 -13 11
0 9 13 10 13 6 0 -2 -8 -10 -14 -16 -13 -20 5 -12 -10 23 -42 26 -24 30 -31
16 -31 -10 0 -16 5 -13 10 4 5 1 6 -6 1 -9 -5 -9 -11 -3 -17 6 -6 8 -18 5 -27
-4 -13 -3 -14 5 -1 6 8 8 18 6 22 -3 4 2 5 10 2 9 -3 16 -10 16 -16 0 -5 6 -6
13 -2 9 6 9 4 1 -7 -13 -16 -15 -51 -2 -43 4 3 8 1 8 -5 0 -5 9 -8 20 -6 11 2
18 0 15 -5 -3 -5 -1 -11 5 -15 6 -4 8 -10 5 -15 -5 -8 23 -25 38 -22 14 3 7
-7 -13 -18 -16 -9 -18 -8 -14 5 4 8 1 15 -6 15 -6 0 -9 -4 -5 -9 3 -5 0 -13
-6 -17 -9 -5 -10 -1 -7 14 5 19 3 20 -13 11 -10 -5 -19 -12 -19 -15 0 -3 4 -3
9 0 5 3 11 0 14 -8 3 -8 19 -13 39 -12 18 0 32 -2 31 -4 -1 -3 -5 -13 -8 -23
-4 -9 -2 -24 5 -32 11 -13 14 -13 26 2 13 17 14 17 7 -1 -4 -12 -3 -17 4 -13
5 3 10 0 10 -8 0 -8 -3 -13 -6 -11 -3 2 -11 -2 -18 -9 -9 -10 -5 -13 20 -11
25 1 31 -3 29 -16 -2 -10 2 -18 8 -18 5 0 10 -6 10 -12 -1 -7 -12 1 -26 17
l-26 30 16 -32 c13 -25 13 -33 4 -33 -7 -1 -1 -8 15 -16 15 -8 27 -19 27 -25
0 -6 6 -7 13 -4 6 4 4 0 -6 -8 -16 -13 -16 -15 -1 -21 22 -9 31 -7 16 3 -11 7
-11 9 2 14 9 4 15 1 13 -6 -1 -7 4 -11 11 -9 10 2 10 -3 -2 -20 -22 -31 -20
-45 2 -17 15 17 21 19 27 9 5 -9 4 -11 -4 -6 -6 4 -14 0 -18 -9 -3 -10 0 -21
7 -25 8 -5 9 -13 4 -21 -14 -23 -14 -42 0 -30 9 7 16 7 24 -1 9 -9 15 -9 25 1
10 11 9 13 -5 8 -9 -3 -22 1 -29 11 -8 9 -9 14 -5 10 5 -4 16 -2 24 5 10 8 13
8 9 1 -4 -7 0 -15 9 -18 15 -6 15 -8 -2 -27 -12 -13 -14 -19 -5 -17 7 2 15 -2
18 -9 3 -7 -4 -10 -19 -7 -22 5 -22 5 2 -10 14 -8 24 -18 22 -22 -2 -5 2 -10
10 -12 9 -2 8 0 -2 7 -9 7 -10 11 -3 11 6 0 15 -5 18 -10 5 -8 11 -8 19 -1 9
8 13 7 13 -4 0 -7 -5 -13 -11 -12 -6 1 -10 -6 -8 -17 2 -10 -1 -15 -7 -12 -5
4 -13 1 -17 -6 -4 -7 -4 -10 1 -6 4 4 17 2 29 -4 11 -7 25 -11 29 -10 4 1 0
-10 -10 -25 -16 -26 -17 -27 0 -14 20 16 22 9 6 -21 -8 -15 -8 -19 0 -14 6 4
11 3 11 -2 0 -6 8 -13 17 -16 15 -6 15 -5 -1 13 -14 15 -15 21 -4 27 7 4 10 4
6 -1 -4 -4 0 -14 9 -23 14 -14 13 -18 -8 -36 -14 -11 -17 -17 -7 -13 23 8 29
-2 17 -27 -10 -20 -10 -20 5 -2 9 11 16 16 17 10 0 -5 5 0 10 11 6 15 7 11 3
-15 -4 -19 -11 -41 -18 -49 -8 -12 -8 -13 2 -7 7 4 15 1 18 -8 3 -9 12 -16 20
-16 17 0 18 -12 3 -27 -9 -9 -7 -11 7 -8 22 3 20 24 -3 42 -19 14 -28 53 -14
53 6 0 8 -9 6 -20 -4 -19 9 -28 18 -12 2 4 2 1 1 -6 -2 -7 2 -15 9 -18 7 -2
13 -18 13 -34 1 -18 -2 -27 -9 -23 -6 3 -7 1 -3 -6 4 -6 12 -8 18 -5 7 5 9 -4
6 -25 -2 -17 -1 -31 4 -31 8 0 12 16 9 33 -1 5 3 6 7 3 5 -3 7 -17 4 -31 -2
-14 0 -25 6 -25 10 0 25 -32 27 -53 0 -5 16 -18 35 -28 19 -11 26 -17 14 -14
-11 3 -29 -1 -40 -9 -19 -14 -19 -15 1 -13 11 1 20 -4 21 -10 1 -7 2 -17 3
-23 0 -5 8 -10 16 -10 8 0 15 -5 15 -11 0 -5 -6 -7 -12 -3 -8 4 -10 3 -5 -2 5
-5 14 -9 20 -9 7 0 11 -10 11 -22 -1 -13 3 -20 7 -17 5 3 7 10 4 15 -4 5 -1 9
4 9 18 0 13 -28 -6 -39 -12 -7 -14 -10 -4 -11 11 0 11 -3 0 -17 -13 -16 -12
-17 3 -4 10 7 16 17 13 20 -2 4 2 8 10 8 8 0 12 -4 9 -8 -2 -4 -1 -9 3 -12 5
-2 3 -2 -4 -1 -6 2 -14 -3 -17 -11 -3 -9 0 -12 10 -8 9 3 14 -1 14 -12 0 -9 5
-13 10 -10 6 4 8 10 5 15 -3 5 0 12 7 16 7 4 10 4 6 -1 -4 -4 -2 -15 5 -23 10
-13 9 -14 -2 -7 -11 6 -13 4 -8 -9 6 -14 3 -17 -8 -12 -9 3 -13 2 -10 -4 9
-14 33 -12 37 2 3 9 6 9 12 0 4 -7 2 -12 -4 -12 -7 0 -8 -5 -3 -12 13 -21 10
-32 -12 -46 -19 -12 -19 -13 3 -7 20 6 32 -8 15 -18 -5 -2 -3 -2 4 -1 6 2 17
-4 24 -12 10 -12 9 -13 -5 -8 -34 13 -14 -6 26 -25 30 -14 37 -20 23 -22 -18
-4 -18 -5 -1 -22 16 -16 17 -20 4 -35 -25 -29 -29 -40 -17 -48 8 -5 9 -3 4 6
-6 10 -4 12 10 6 14 -5 16 -4 7 7 -9 10 -8 14 3 14 8 0 12 -4 9 -9 -3 -4 1 -8
8 -8 8 0 7 -4 -4 -10 -20 -12 -16 -50 9 -68 20 -14 26 -44 11 -53 -6 -4 1 -6
15 -6 30 2 35 12 12 20 -8 4 -12 15 -10 27 3 13 0 18 -7 14 -7 -4 -8 -3 -4 4
5 8 1 10 -10 5 -13 -5 -16 -2 -12 9 4 9 2 20 -3 25 -5 5 -1 9 11 10 11 1 22
-2 25 -8 4 -5 -2 -6 -12 -2 -17 6 -17 5 1 -15 10 -12 23 -19 29 -15 6 4 7 1 1
-8 -13 -20 -11 -33 5 -45 9 -7 11 -16 5 -25 -5 -8 -9 -17 -9 -21 0 -3 -4 -10
-9 -15 -5 -5 -6 -3 -2 5 4 6 2 12 -4 12 -7 0 -10 -6 -7 -12 2 -7 10 -12 17
-10 21 5 31 -21 15 -38 -9 -10 -11 -20 -5 -30 7 -11 10 -12 10 -2 0 7 5 10 10
7 6 -4 8 -11 4 -16 -3 -5 -1 -15 4 -22 5 -7 8 -20 7 -30 -2 -9 1 -15 6 -11 5
3 6 11 2 17 -5 9 -3 9 8 1 8 -6 21 -14 29 -18 9 -3 6 -4 -7 -2 -25 4 -37 -16
-20 -34 9 -10 9 -12 -4 -7 -9 3 -16 0 -16 -8 0 -8 7 -11 15 -7 10 3 13 1 8 -6
-4 -7 -2 -12 6 -12 10 0 9 -3 -2 -11 -12 -8 -10 -9 7 -4 19 5 22 3 17 -12 -5
-16 -4 -16 12 2 12 15 15 16 11 3 -3 -9 -3 -19 1 -23 4 -3 7 -13 7 -21 0 -7 5
-13 10 -11 6 1 9 6 7 12 -2 5 0 6 4 2 11 -11 14 -38 4 -32 -5 3 -11 1 -15 -4
-3 -6 -12 -8 -20 -4 -8 3 -15 0 -15 -5 0 -6 15 -9 33 -7 17 2 26 1 19 -2 -10
-4 -10 -8 0 -21 10 -12 10 -14 1 -8 -7 4 -13 3 -13 -3 0 -5 5 -12 10 -14 6 -3
5 -4 -2 -3 -7 2 -12 11 -12 20 1 9 -2 16 -7 16 -5 0 -8 -11 -7 -24 1 -14 7
-22 12 -19 5 4 7 -1 3 -10 -3 -9 -2 -19 3 -22 10 -6 8 -24 -4 -43 -5 -8 -3
-19 3 -25 9 -9 10 -7 5 8 -7 17 -5 18 7 8 13 -10 16 -10 16 2 0 8 -3 12 -7 10
-4 -2 -7 2 -7 9 0 7 6 13 12 13 7 0 12 -10 11 -21 -1 -13 4 -20 12 -18 8 1 11
-2 8 -7 -4 -5 -2 -12 4 -16 5 -3 10 -12 10 -18 0 -7 -5 -4 -11 6 -6 9 -15 14
-21 11 -7 -5 -8 -2 -3 6 5 9 4 11 -4 6 -6 -4 -8 -12 -5 -18 5 -8 1 -9 -12 -5
-18 7 -18 6 -2 -6 10 -8 14 -18 10 -22 -4 -5 -2 -5 5 -1 7 3 14 -2 18 -14 3
-11 13 -20 21 -20 8 0 14 -5 14 -11 0 -6 -6 -9 -13 -6 -8 3 -14 -1 -14 -9 0
-7 4 -11 9 -8 4 3 8 1 8 -5 0 -5 -5 -13 -10 -16 -13 -8 -3 -25 13 -25 9 0 9 2
0 8 -8 5 -6 14 8 31 10 13 19 18 19 13 0 -6 -4 -14 -10 -17 -5 -3 -10 -11 -10
-16 0 -6 5 -7 12 -3 7 4 8 3 4 -4 -4 -7 -1 -12 6 -12 8 0 9 -3 3 -8 -9 -6 -12
-26 -5 -34 1 -2 3 -14 4 -28 2 -13 10 -29 19 -34 14 -9 12 -13 -16 -29 -17
-10 -23 -15 -12 -12 37 13 50 10 50 -10 0 -11 4 -26 8 -32 5 -7 4 -13 -1 -13
-5 0 -12 -10 -15 -21 -4 -17 -3 -19 6 -10 6 6 15 11 20 11 6 0 -3 -12 -19 -27
-18 -17 -22 -24 -11 -20 10 4 23 7 28 7 6 0 7 5 3 12 -4 7 -3 8 4 4 6 -4 9
-13 6 -21 -4 -8 -9 -13 -13 -11 -4 3 -13 1 -21 -5 -8 -5 -10 -9 -4 -9 5 0 10
-12 10 -27 -1 -15 5 -28 14 -30 12 -4 12 -3 1 5 -8 6 -9 12 -3 16 16 9 25 -13
13 -28 -17 -20 7 -70 25 -55 8 6 12 15 9 18 -2 4 2 8 10 8 13 0 12 -4 -2 -19
-15 -17 -12 -22 12 -19 6 1 2 -5 -7 -12 -10 -8 -18 -21 -18 -30 0 -8 -5 -17
-12 -19 -7 -3 -5 -7 6 -11 9 -4 15 -3 12 2 -3 5 3 20 14 32 11 13 19 18 20 12
0 -7 -4 -13 -10 -13 -11 0 -14 -53 -3 -64 4 -4 8 -17 9 -30 0 -13 4 -32 9 -42
4 -10 10 -28 12 -39 4 -19 3 -19 -11 0 -8 11 -12 23 -10 27 3 5 1 8 -5 8 -6 0
-9 6 -7 12 1 7 1 10 -1 5 -3 -4 -9 -4 -15 -1 -5 4 -2 -5 7 -19 9 -15 13 -32 9
-38 -5 -8 -3 -9 6 -4 10 6 12 4 7 -8 -4 -12 -2 -14 11 -10 14 5 15 3 5 -8 -18
-19 -16 -34 2 -19 13 11 14 10 9 -5 -6 -14 -4 -16 6 -10 9 5 11 4 6 -4 -4 -6
-12 -9 -17 -6 -5 3 -6 -2 -2 -11 4 -10 2 -15 -4 -11 -5 3 -10 0 -10 -8 0 -8 4
-12 9 -9 4 3 8 0 8 -5 0 -6 5 -11 11 -11 8 0 8 4 1 13 -7 8 -6 16 5 26 13 12
14 11 8 -9 -5 -14 -3 -20 3 -16 6 3 9 -2 7 -11 -1 -10 3 -24 9 -32 8 -11 8
-13 -1 -7 -8 4 -13 2 -13 -4 0 -6 -5 -8 -12 -4 -7 4 -8 3 -4 -5 4 -6 12 -9 17
-6 5 4 9 -1 9 -9 0 -8 8 -20 18 -25 10 -6 12 -11 4 -11 -7 0 -10 -5 -6 -12 4
-7 3 -8 -5 -4 -6 4 -8 12 -5 18 4 7 2 8 -5 4 -7 -4 -10 -2 -9 5 2 6 -4 14 -12
16 -13 4 -13 3 0 -6 8 -6 12 -11 7 -11 -4 0 0 -11 9 -25 9 -14 20 -23 24 -20
5 3 11 1 15 -4 3 -6 -4 -8 -16 -6 -18 4 -20 1 -15 -21 5 -18 3 -24 -5 -19 -8
6 -8 2 0 -12 6 -11 7 -24 3 -28 -4 -5 -2 -5 4 -2 6 3 10 20 9 36 -1 17 2 28 7
25 5 -3 6 -15 2 -26 -3 -12 -2 -18 3 -15 5 4 10 0 10 -8 0 -8 -4 -12 -9 -9 -4
3 -8 -2 -8 -10 0 -10 -6 -13 -17 -10 -16 5 -16 4 0 -6 15 -10 16 -14 6 -28
-11 -14 -11 -15 1 -4 8 6 25 12 39 11 21 0 23 -2 8 -8 -10 -4 -19 -9 -20 -12
-4 -10 29 -37 38 -31 6 3 4 -1 -3 -10 -8 -10 -9 -19 -3 -22 5 -3 12 0 14 6 4
9 6 10 6 1 1 -6 -4 -15 -10 -18 -7 -5 -4 -14 8 -28 12 -15 13 -18 2 -9 -9 6
-19 9 -22 6 -4 -4 -4 3 -2 15 2 12 0 19 -5 16 -12 -7 -6 -35 11 -46 8 -5 10
-9 5 -9 -5 0 -2 -7 5 -16 19 -23 20 -44 2 -37 -8 3 -12 12 -9 19 3 8 1 14 -4
14 -5 0 -8 -18 -7 -39 1 -21 6 -37 10 -34 4 2 6 -7 3 -21 -3 -14 0 -29 6 -32
7 -5 8 -2 3 6 -5 8 -4 11 2 7 6 -4 13 -16 16 -27 5 -18 3 -19 -10 -8 -15 12
-15 11 -4 -9 10 -19 8 -26 -8 -42 -11 -11 -16 -23 -11 -26 6 -4 10 -1 10 4 0
6 8 3 18 -6 10 -10 15 -20 12 -23 -10 -9 -5 -31 10 -41 13 -9 12 -10 -2 -6 -9
3 -19 3 -21 -1 -2 -4 -2 0 0 8 2 8 1 11 -3 7 -4 -4 -14 -1 -23 6 -8 6 -5 -2 7
-19 23 -33 19 -55 -6 -26 -8 9 -6 4 3 -12 16 -27 16 -29 1 -23 -11 4 -15 3
-11 -4 4 -6 13 -8 21 -5 8 3 14 -1 14 -10 0 -9 -5 -12 -12 -8 -7 4 -8 3 -4 -5
6 -9 11 -9 22 0 11 9 11 15 3 25 -8 10 -8 14 0 14 6 0 11 -4 11 -10 0 -20 2
-25 13 -40 10 -12 9 -13 -3 -3 -12 9 -19 6 -35 -15 -11 -17 -13 -22 -4 -15 9
7 20 9 24 5 5 -4 5 -1 0 7 -5 9 1 7 19 -4 31 -21 31 -21 7 -21 -11 0 -17 4
-14 9 4 7 -33 -8 -45 -19 -2 -1 265 -3 593 -4 373 0 594 3 591 9 -3 5 -2 11 3
13 5 1 11 12 13 23 1 11 7 23 11 26 5 3 2 9 -6 12 -11 4 -15 0 -12 -13 3 -13
-1 -17 -12 -13 -8 3 -10 9 -5 12 5 3 8 14 6 24 -1 9 1 17 6 17 10 0 8 71 -3
87 -5 8 -4 13 2 13 10 0 15 -12 13 -31 0 -3 9 -11 20 -18 19 -12 20 -12 5 10
-11 15 -13 28 -7 39 9 17 -1 43 -16 40 -5 -1 -10 4 -12 12 -3 10 -2 10 6 0 7
-11 14 -8 29 15 11 15 18 34 15 42 -3 9 0 11 8 6 8 -5 11 -4 6 3 -3 5 -3 12 1
15 5 2 3 3 -4 1 -25 -6 -21 11 10 38 17 16 25 28 17 26 -8 -2 -15 4 -15 12 0
8 -4 21 -9 28 -7 12 -4 12 15 2 20 -10 22 -10 11 1 -17 19 -15 29 6 24 9 -3 4
1 -13 9 -25 13 -21 22 8 17 5 -1 6 3 2 9 -3 5 -1 10 6 10 7 0 9 3 6 6 -4 4
-13 1 -21 -5 -11 -9 -16 -9 -22 0 -4 8 -3 9 5 5 8 -5 10 0 7 18 -3 14 0 28 5
32 6 3 3 12 -8 20 -17 13 -17 14 1 7 12 -4 17 -2 13 4 -3 5 0 21 7 35 8 15 10
31 5 39 -4 7 -5 17 -3 21 7 12 24 10 24 -3 0 -5 -6 -7 -12 -3 -9 5 -9 2 1 -9
7 -9 21 -16 30 -16 13 1 13 2 -2 6 -9 2 -15 9 -11 14 3 5 11 6 17 3 7 -4 3 2
-8 13 -14 15 -25 18 -37 12 -11 -6 -19 -5 -24 3 -4 6 -3 8 3 5 6 -4 21 3 34
14 22 19 24 19 36 3 7 -10 13 -13 13 -7 0 14 -36 54 -44 48 -3 -3 -4 -2 -1 2
9 12 36 12 29 1 -4 -6 -2 -8 4 -4 5 3 12 0 15 -6 3 -7 4 -3 4 9 -1 12 -5 19
-9 17 -4 -3 -8 0 -8 6 0 6 -5 8 -12 4 -7 -5 -8 -3 -3 5 4 8 17 10 34 6 25 -6
25 -6 6 9 -14 11 -16 15 -6 16 8 0 12 3 9 6 -4 3 -19 -2 -35 -11 -25 -15 -26
-15 -8 -1 17 15 18 18 5 27 -12 8 -10 9 8 4 12 -3 22 -3 22 0 0 4 -10 16 -22
27 -13 11 -16 16 -8 12 23 -13 39 -13 47 -2 4 7 1 8 -7 3 -8 -5 -11 -3 -8 6 3
8 10 14 16 14 5 0 14 3 18 7 3 4 -3 5 -15 3 -15 -3 -21 0 -18 8 3 7 9 11 14
10 6 -1 9 8 8 21 -2 13 5 29 16 37 24 17 24 28 2 24 -10 -1 -17 -8 -15 -15 1
-7 -2 -8 -10 -3 -7 4 -16 8 -20 8 -3 0 -10 4 -15 9 -4 5 -3 6 4 2 6 -3 14 -2
18 4 4 6 10 8 14 5 5 -2 21 7 37 21 19 16 23 22 10 18 -13 -5 -17 -4 -13 4 4
6 -1 13 -10 15 -17 4 -17 5 0 6 9 0 17 6 17 12 0 5 -5 7 -12 3 -7 -4 -8 -3 -4
4 4 7 14 12 22 12 8 0 13 6 11 13 -1 6 4 11 12 9 11 -2 12 0 3 11 -9 10 -9 17
1 27 10 12 9 12 -5 1 -10 -7 -15 -18 -11 -24 4 -6 1 -7 -7 -2 -8 5 -11 4 -6
-3 3 -6 1 -14 -5 -18 -8 -5 -9 -3 -4 6 6 10 3 12 -11 7 -15 -5 -14 -3 4 9 23
17 32 41 9 28 -6 -5 1 9 16 29 21 27 26 41 18 50 -12 16 -7 70 8 75 6 2 8 9 4
15 -4 7 1 6 11 -2 15 -13 19 -13 26 0 12 18 1 60 -19 77 -14 11 -13 12 6 3 30
-15 32 -14 26 10 -4 13 -8 17 -13 9 -5 -8 -9 -7 -13 5 -5 11 -3 14 5 9 7 -5 9
-2 5 8 -4 12 0 15 18 14 16 -2 22 1 18 10 -2 7 -12 11 -21 8 -9 -3 -6 1 8 8
14 7 29 18 33 25 5 8 13 10 19 7 7 -5 8 -2 4 5 -6 9 -13 8 -27 -5 -10 -9 -19
-13 -19 -8 0 5 -4 2 -10 -6 -5 -8 -12 -11 -17 -7 -9 10 18 28 30 20 4 -3 8 1
6 8 -3 26 1 39 12 39 8 0 7 -6 -2 -18 -13 -15 -12 -16 4 -3 13 10 15 17 6 27
-6 8 -16 11 -22 7 -6 -4 -7 -1 -3 6 5 7 10 10 13 7 11 -10 42 35 36 51 -4 11
-2 14 5 9 7 -4 9 2 6 19 -3 20 -1 23 13 19 14 -5 15 -4 4 4 -16 11 -5 36 11
26 7 -5 8 -2 2 7 -4 8 -10 20 -11 27 -2 6 -4 18 -6 25 -1 6 -6 18 -11 25 -7
11 -4 11 13 0 12 -7 21 -16 21 -21 0 -4 -5 -5 -12 -1 -7 4 -8 3 -4 -4 5 -9 13
-9 27 -2 10 6 19 13 19 16 0 3 -4 2 -10 -1 -5 -3 -10 -2 -10 4 0 5 3 11 8 14
4 2 2 3 -4 1 -18 -4 -38 12 -25 20 6 4 11 2 11 -5 0 -8 3 -9 13 0 8 6 17 7 22
3 4 -4 2 3 -4 16 -14 26 -26 30 -16 5 5 -14 4 -15 -6 -6 -9 9 -9 16 -1 26 7 8
9 17 5 20 -3 4 -1 7 6 7 7 0 11 -6 8 -13 -3 -8 1 -14 8 -14 10 0 11 5 4 19 -9
17 -5 22 13 19 4 0 5 6 2 14 -4 9 -1 15 7 15 7 0 3 7 -9 16 -17 11 -20 19 -13
28 6 7 7 17 3 22 -4 4 1 2 11 -5 13 -10 17 -11 17 -1 0 9 3 10 13 1 10 -8 14
-7 14 4 0 8 -4 12 -9 8 -6 -3 -7 8 -5 25 3 17 2 33 -1 35 -4 2 -1 2 6 1 15 -4
15 1 2 26 -8 16 -8 18 5 14 8 -3 12 -10 9 -15 -3 -5 3 -6 12 -2 11 4 13 8 6
11 -7 2 -9 9 -6 14 5 7 2 8 -6 3 -8 -5 -11 -4 -6 3 3 5 0 13 -6 16 -7 2 -4 4
7 3 11 -1 20 1 20 4 0 12 28 39 35 34 5 -3 12 0 16 6 4 7 3 9 -4 5 -6 -3 -14
-2 -17 4 -4 6 -15 8 -26 5 -11 -4 -19 -2 -19 4 0 6 3 10 8 10 4 -1 14 -1 22 0
13 1 13 2 0 12 -13 9 -13 10 0 6 8 -2 14 -10 13 -16 -4 -17 14 -13 21 5 3 8 2
12 -4 9 -15 -9 -12 7 5 29 14 18 20 15 16 -7 -1 -5 3 -6 9 -2 6 4 5 13 -2 25
-8 12 -15 15 -19 9 -4 -7 -9 -5 -12 5 -4 9 -1 15 5 13 15 -3 17 22 5 47 -6 12
-6 16 1 12 6 -3 12 0 15 6 3 10 8 10 18 -1 9 -8 9 -11 2 -7 -9 5 -11 1 -7 -11
5 -15 4 -15 -5 -3 -8 12 -10 11 -8 -8 2 -27 14 -29 22 -2 3 11 11 20 16 20 5
0 9 5 9 11 0 5 -4 8 -8 5 -4 -2 -13 3 -19 13 -8 13 -7 17 8 17 9 0 15 -5 13
-11 -3 -5 1 -2 9 7 8 10 18 14 23 10 4 -4 2 1 -5 11 -14 17 -27 24 -17 9 3 -5
-1 -9 -9 -9 -11 0 -12 4 -4 13 6 7 20 11 31 9 16 -4 19 -2 10 7 -8 8 -7 15 6
25 15 13 14 13 -6 3 -12 -6 -20 -15 -17 -20 4 -6 -2 -7 -11 -3 -11 4 -13 8 -6
11 7 2 10 8 6 13 -3 5 0 8 7 7 18 -4 18 24 -1 40 -8 7 -10 11 -3 10 6 -2 18 5
25 15 13 18 14 17 14 -2 0 -11 -4 -17 -8 -15 -11 7 -10 -8 2 -26 6 -10 10 -11
10 -2 0 18 34 49 51 45 8 -3 6 1 -4 7 -9 6 -15 16 -11 21 3 6 -2 20 -13 31
-18 21 -18 21 4 9 14 -7 24 -8 28 -1 3 5 3 10 -2 10 -4 0 0 5 10 11 9 6 15 14
12 19 -3 5 -1 11 5 15 6 4 8 11 5 16 -4 5 0 9 8 9 17 0 30 27 17 35 -5 3 -12
0 -16 -6 -5 -8 -3 -9 6 -4 9 5 11 4 6 -4 -4 -6 -12 -9 -17 -6 -8 6 -13 -8 -10
-27 0 -5 -4 -8 -10 -8 -6 0 -9 -6 -6 -14 5 -13 -31 -31 -42 -21 -2 3 1 5 7 5
6 0 9 8 6 18 -4 13 -3 14 4 4 8 -11 10 -11 15 1 3 8 0 20 -6 26 -9 9 -8 10 7
5 13 -5 17 -4 13 3 -4 6 0 14 9 17 15 6 15 9 -2 29 -17 19 -17 20 -1 8 22 -17
67 -24 67 -10 0 6 -4 7 -10 4 -14 -8 -13 8 1 22 9 9 8 18 -5 38 -12 18 -13 24
-4 23 7 -2 12 2 11 8 -1 7 6 10 17 7 11 -3 17 -9 14 -14 -3 -5 -10 -6 -16 -3
-7 5 -8 2 -3 -6 6 -9 4 -11 -5 -5 -9 5 -11 4 -6 -4 6 -8 12 -9 20 -2 7 6 15 9
17 6 3 -2 5 5 6 15 1 11 -4 20 -12 20 -8 0 -17 5 -21 12 -5 7 -3 8 6 3 10 -6
12 -4 7 8 -4 11 -2 14 8 10 8 -3 13 -8 10 -12 -2 -4 2 -8 10 -8 8 0 13 5 12
11 -1 6 4 10 12 8 12 -3 12 0 2 12 -14 16 1 31 22 21 6 -4 4 0 -6 9 -11 8 -25
12 -32 10 -15 -6 -15 20 0 33 4 4 5 2 1 -5 -10 -16 30 -10 47 8 9 10 9 11 0 6
-7 -4 -13 -3 -13 2 0 5 11 15 25 22 14 7 23 16 20 18 -3 3 0 11 6 19 6 7 8 13
3 14 -5 0 0 5 11 10 l20 9 -20 -3 c-11 -2 -19 -9 -17 -16 1 -7 -2 -10 -8 -6
-6 4 -10 3 -9 -2 3 -19 -2 -31 -14 -36 -8 -3 -14 1 -14 9 0 7 4 11 8 8 4 -2
10 0 14 6 3 5 0 10 -7 10 -8 0 -6 5 5 11 9 6 14 15 11 21 -4 7 -2 8 4 4 7 -4
12 -2 12 4 0 6 4 9 9 5 6 -3 8 3 6 15 -2 11 1 23 7 26 7 5 8 2 3 -6 -6 -10 -4
-12 8 -7 10 4 17 1 17 -5 0 -6 3 -8 6 -5 4 4 1 13 -6 22 -7 8 -9 15 -4 15 5 0
2 5 -6 10 -11 7 -11 10 -2 10 7 0 10 5 6 12 -4 6 -3 8 4 4 6 -3 13 -2 17 4 4
6 10 8 15 5 14 -9 23 16 11 28 -9 9 -11 7 -6 -8 6 -16 5 -17 -4 -5 -8 11 -6
18 7 28 9 7 16 21 15 30 -1 9 0 12 3 5 3 -7 13 -9 22 -6 10 3 8 -1 -6 -11 -21
-16 -22 -43 -1 -30 5 3 7 9 4 14 -3 4 2 11 11 14 8 3 13 10 9 15 -3 5 5 17 17
25 12 9 18 16 12 16 -5 0 -16 -6 -22 -12 -10 -10 -12 -8 -9 8 1 12 10 29 19
38 18 18 33 22 23 6 -3 -5 -1 -10 4 -10 14 0 14 17 1 25 -8 5 -8 11 -1 19 6 7
8 16 4 19 -3 4 -4 7 0 7 3 0 13 -8 23 -17 16 -16 16 -16 10 5 -10 32 2 62 25
62 30 0 50 22 34 37 -7 7 -16 9 -19 5 -4 -3 -4 1 -1 11 6 14 9 15 21 2 8 -8
22 -11 30 -8 12 4 13 8 3 14 -7 4 -16 6 -20 3 -4 -2 -5 5 -2 17 3 11 9 16 12
11 3 -5 14 -9 23 -9 10 0 16 2 13 5 -2 3 0 14 6 24 9 16 8 19 -3 16 -7 -3 -13
-10 -13 -15 0 -6 -3 -14 -7 -18 -3 -4 -6 -1 -4 7 3 26 18 39 39 36 13 -2 25 5
32 18 5 11 15 19 22 17 6 -2 14 1 18 6 3 6 0 8 -9 5 -10 -4 -14 0 -12 12 2 10
9 20 16 22 7 3 10 0 7 -5 -3 -5 0 -10 8 -10 13 0 12 4 -2 19 -14 16 -14 18 0
18 8 0 18 -6 21 -12 3 -7 4 -4 3 7 -1 13 4 20 15 19 16 -2 16 0 0 25 l-16 26
24 -20 24 -20 -19 30 c-13 21 -14 26 -3 18 17 -15 28 -8 28 19 0 10 5 18 11
18 5 0 8 -4 5 -8 -3 -5 1 -9 9 -9 8 0 17 7 19 14 3 8 10 11 16 8 6 -4 7 1 3
11 -5 14 -3 15 18 5 22 -11 23 -11 5 3 -10 9 -23 13 -28 9 -6 -3 -5 4 1 15 16
30 28 35 41 15 10 -16 11 -16 7 4 -6 28 65 96 90 86 12 -5 14 -3 8 7 -6 10 -4
12 9 7 9 -4 15 -3 11 2 -3 5 2 17 11 25 8 9 12 16 8 16 -3 0 -1 6 6 14 9 12 8
15 -9 13 -19 -1 -26 -10 -22 -30 1 -5 -3 -6 -9 -2 -6 3 -8 11 -5 16 5 8 -10
13 -18 7 -2 -2 -16 6 -32 16 -30 19 -30 19 -12 -1 22 -25 23 -40 1 -18 -9 9
-19 13 -22 10 -4 -3 0 -11 8 -16 12 -8 10 -10 -8 -6 -19 5 -22 2 -18 -16 3
-12 3 -16 0 -9 -3 6 -10 10 -14 7 -5 -3 -7 4 -5 15 2 12 0 18 -6 14 -6 -3 -8
-8 -5 -11 10 -11 -15 -44 -27 -36 -23 14 -35 11 -42 -11 -4 -11 -6 -25 -5 -31
1 -5 -1 -7 -5 -3 -4 4 -18 3 -31 -2 -17 -7 -28 -5 -41 8 -15 15 -16 15 -11 0
4 -10 -1 -23 -14 -35 -12 -10 -18 -13 -15 -7 4 7 -2 14 -13 17 -16 4 -18 2
-11 -12 6 -10 5 -23 -4 -34 -11 -16 -13 -16 -19 -2 -3 9 -2 13 3 10 5 -3 12
-1 16 5 3 5 -1 10 -10 10 -9 0 -19 -9 -22 -20 -3 -11 -9 -17 -14 -14 -5 3 -6
11 -2 17 5 9 3 9 -8 0 -12 -10 -18 -10 -28 0 -11 10 -11 8 -2 -10 15 -30 14
-38 -3 -23 -11 9 -19 9 -33 0 -15 -10 -15 -11 -1 -6 9 2 22 -3 29 -12 11 -14
11 -15 0 -6 -14 13 -54 7 -46 -6 8 -13 -27 -21 -40 -10 -10 8 -15 8 -21 -1 -4
-7 -3 -9 3 -6 6 4 13 -2 16 -13 3 -11 0 -23 -5 -27 -7 -4 -8 -1 -3 7 6 9 4 12
-7 8 -8 -4 -21 -2 -29 4 -11 7 -9 8 6 3 16 -5 18 -4 8 6 -9 9 -16 10 -23 3 -8
-8 -6 -15 5 -24 17 -14 20 -30 4 -30 -5 0 -7 5 -4 10 3 6 -4 10 -15 10 -13 0
-24 -8 -27 -20 -3 -11 -10 -20 -15 -20 -5 0 -7 4 -4 9 7 11 -21 8 -31 -4 -4
-4 -2 -5 5 -1 13 8 16 -3 6 -28 -3 -9 -10 -13 -15 -10 -5 3 -9 0 -9 -6 0 -6
-4 -9 -8 -6 -5 3 -19 -6 -30 -19 -12 -14 -27 -25 -33 -25 -6 0 -1 9 12 20 13
10 18 19 12 20 -7 0 -13 -4 -13 -10 0 -14 -18 -12 -23 3 -2 6 -3 4 -2 -5 4
-22 -19 -53 -33 -44 -5 3 -12 0 -14 -6 -3 -7 -13 -13 -23 -13 -10 0 -19 -8
-21 -18 -1 -9 2 -15 7 -11 5 3 6 10 3 16 -4 6 -1 9 7 6 8 -3 23 -1 34 5 27 13
17 3 -27 -27 -25 -17 -40 -21 -44 -14 -5 7 -2 8 6 3 9 -6 11 -4 6 4 -11 17
-20 5 -21 -27 0 -16 -6 -26 -13 -24 -7 1 -15 -5 -18 -13 -4 -8 -11 -15 -16
-15 -6 0 -6 6 1 14 10 12 8 13 -8 9 -24 -6 -26 -13 -8 -33 6 -8 1 -6 -12 5
l-24 20 12 -23 c9 -17 9 -22 -1 -20 -6 2 -12 -4 -13 -12 0 -8 -6 -15 -13 -15
-7 0 -17 -6 -21 -14 -6 -9 -11 -10 -15 -2 -4 6 -2 11 5 11 7 0 10 2 7 5 -8 8
-38 -6 -38 -17 0 -5 4 -7 9 -4 5 3 11 0 14 -7 6 -16 -25 -19 -35 -3 -5 7 -8 5
-8 -6 0 -9 6 -19 13 -22 6 -3 -1 -3 -18 -1 -23 4 -33 1 -43 -16 -8 -12 -9 -18
-4 -15 6 3 13 -1 16 -10 4 -10 2 -13 -6 -8 -7 5 -9 2 -5 -9 4 -11 2 -14 -8
-11 -8 3 -13 9 -12 12 1 4 -2 8 -8 9 -5 1 -9 -4 -7 -11 1 -8 -9 -21 -23 -30
-14 -9 -25 -22 -24 -29 0 -9 2 -9 6 1 2 6 12 12 21 11 11 0 12 -2 4 -6 -6 -2
-9 -10 -5 -16 3 -7 3 -9 -2 -5 -4 4 -14 0 -22 -10 -8 -9 -12 -11 -8 -5 3 7 1
21 -4 30 -6 11 -11 13 -11 5 0 -7 -5 -10 -12 -6 -7 4 -8 3 -4 -5 4 -6 13 -8
19 -5 9 5 9 3 0 -6 -10 -11 -15 -11 -30 1 -16 13 -17 12 -5 -3 9 -11 10 -18 2
-23 -6 -4 -8 -15 -5 -26 4 -11 2 -19 -5 -19 -6 0 -9 3 -7 8 3 4 1 16 -4 27
l-9 20 1 -20 c2 -40 -1 -56 -11 -50 -5 3 -6 13 -3 23 5 14 4 15 -8 4 -11 -10
-11 -16 -1 -33 8 -12 9 -18 3 -14 -6 3 -16 -5 -23 -19 -6 -14 -15 -26 -20 -26
-5 0 0 13 11 28 14 20 17 32 9 43 -8 11 -9 11 -4 -3 3 -11 -2 -22 -15 -28 -11
-6 -17 -15 -14 -19 2 -5 -4 -19 -15 -31 -11 -13 -21 -20 -21 -17 -1 4 -2 11
-3 16 0 5 -4 13 -8 16 -4 4 -5 -5 -2 -20 3 -20 1 -25 -8 -19 -7 4 -10 4 -6 -1
4 -4 2 -15 -5 -24 -10 -14 -10 -14 4 -3 14 10 19 9 30 -5 13 -16 12 -17 -3 -4
-16 12 -22 9 -19 -11 0 -4 -7 -4 -16 -1 -12 5 -15 2 -11 -9 7 -18 -20 -21 -42
-4 -8 5 -12 7 -8 2 4 -5 -1 -16 -10 -25 -10 -9 -13 -13 -8 -8 16 12 31 8 19
-4 -6 -6 -9 -18 -6 -25 3 -8 0 -14 -7 -14 -6 0 -9 -4 -5 -9 3 -5 0 -13 -7 -17
-7 -4 -10 -4 -6 1 4 4 1 14 -7 21 -18 19 -31 18 -15 -1 7 -8 9 -15 6 -15 -4 0
-2 -9 4 -20 9 -16 8 -19 -7 -13 -13 5 -15 3 -10 -11 4 -9 3 -15 -2 -11 -5 3
-12 -4 -16 -15 -4 -11 -11 -18 -16 -15 -5 4 -2 13 6 21 19 19 19 21 0 21 -8 0
-12 -4 -9 -8 2 -4 -4 -12 -13 -18 -10 -6 -12 -11 -6 -11 14 0 12 -35 -2 -47
-4 -5 -5 -2 -1 5 4 7 1 12 -8 12 -9 0 -16 5 -16 10 0 6 -5 10 -11 10 -8 0 -8
-4 0 -14 8 -10 9 -16 1 -21 -6 -3 -8 -11 -5 -16 6 -8 -8 -13 -27 -10 -4 0 -5
-6 -2 -14 4 -8 10 -15 16 -15 5 0 7 4 4 8 -3 5 1 9 9 9 11 0 12 -4 4 -14 -16
-18 -36 -16 -49 5 -9 14 -10 13 -4 -7 4 -16 3 -21 -5 -17 -6 4 -11 4 -10 -1 4
-22 -3 -32 -18 -27 -15 5 -16 4 -3 -5 12 -8 18 -6 29 9 7 11 18 20 23 20 5 0
0 -10 -12 -22 -11 -12 -19 -27 -19 -32 3 -23 -1 -37 -10 -32 -4 3 -19 -6 -31
-19 -13 -14 -20 -25 -16 -25 5 0 3 -6 -3 -14 -6 -7 -9 -22 -5 -32 5 -18 5 -18
-6 -1 -6 9 -8 22 -5 27 12 20 -12 9 -35 -15 -21 -22 -20 -29 2 -27 3 1 12 -6
20 -16 12 -15 11 -16 -4 -3 -17 12 -23 9 -19 -12 1 -5 -3 -6 -9 -2 -6 3 -8 11
-5 16 3 5 -1 6 -9 3 -14 -5 -13 -9 1 -30 8 -13 13 -25 9 -25 -3 -1 -10 -2 -16
-3 -5 0 -10 -5 -11 -11 0 -5 -7 -14 -15 -18 -8 -5 -12 -12 -10 -16 3 -4 -4 -7
-16 -7 -12 1 -23 -6 -26 -14 -4 -13 -3 -13 10 -2 13 10 18 10 24 1 4 -7 3 -9
-3 -6 -6 4 -17 -1 -24 -10 -12 -15 -12 -16 6 -10 19 7 19 7 1 -8 -10 -8 -24
-16 -30 -18 -7 -3 -7 -9 3 -21 8 -9 11 -19 7 -23 -3 -3 -6 -1 -6 5 0 7 -5 12
-11 12 -5 0 -7 -4 -4 -10 3 -5 1 -10 -5 -10 -6 0 -8 13 -6 33 3 17 3 26 0 19
-3 -6 -11 -9 -17 -5 -7 4 -6 -1 2 -10 12 -15 11 -17 -3 -17 -9 0 -16 -3 -17
-7 0 -5 -2 -16 -4 -26 -2 -11 5 -22 18 -28 20 -8 19 -9 -5 -4 -15 3 -30 0 -34
-7 -4 -7 -3 -8 4 -4 7 4 12 2 12 -4 0 -6 4 -9 9 -5 5 3 12 1 15 -4 3 -5 -9 -7
-26 -6 -30 3 -31 2 -13 -11 10 -8 13 -14 6 -14 -7 0 -9 -5 -6 -10 4 -6 2 -9
-4 -8 -5 2 -17 -6 -25 -17 -11 -14 -15 -15 -14 -5 2 8 8 18 13 22 15 12 -7 10
-25 -2 -8 -5 -10 -10 -3 -10 6 0 9 -9 5 -22 -3 -12 -1 -19 5 -15 5 3 10 0 10
-8 0 -13 -3 -13 -18 1 -13 12 -19 12 -25 3 -4 -7 -3 -10 3 -6 6 4 14 0 17 -9
3 -8 2 -12 -4 -9 -6 3 -10 1 -10 -4 0 -6 5 -11 10 -11 7 0 7 -4 0 -12 -6 -7
-17 -22 -25 -33 -14 -19 -15 -19 -8 -1 4 13 3 17 -5 12 -8 -5 -10 -2 -5 9 4
13 7 14 14 3 5 -8 7 -3 5 15 -1 15 -7 30 -12 35 -5 4 -6 3 -2 -2 4 -5 0 -22
-8 -38 -8 -16 -12 -33 -9 -38 3 -5 -1 -12 -8 -17 -10 -5 -12 -15 -6 -28 4 -11
8 -14 8 -7 1 6 6 12 13 12 6 0 4 -7 -5 -18 -10 -10 -14 -22 -10 -27 5 -4 2 -5
-4 -1 -7 4 -13 3 -13 -2 0 -6 -8 -13 -17 -16 -16 -6 -16 -5 0 12 15 16 15 20
4 25 -8 3 -14 0 -13 -6 0 -7 -3 -12 -9 -12 -5 0 -9 4 -7 9 2 5 -3 4 -11 -2 -8
-7 -17 -8 -21 -4 -4 4 -6 0 -4 -8 2 -8 -3 -14 -10 -12 -8 1 -11 -2 -7 -8 3 -5
1 -10 -4 -10 -6 0 -11 -5 -11 -11 0 -8 4 -8 14 0 21 17 27 0 10 -29 -12 -19
-14 -20 -9 -5 4 16 0 21 -15 22 -13 1 -18 -2 -14 -9 5 -7 2 -8 -5 -3 -9 5 -10
10 -2 18 6 6 11 21 11 33 0 12 6 25 13 28 6 3 2 3 -10 0 -21 -5 -28 3 -24 29
0 4 -4 7 -10 7 -6 0 -9 7 -5 15 3 8 3 22 0 30 -5 13 -9 13 -22 3 -14 -12 -14
-11 -1 9 8 14 16 18 20 12 4 -7 9 -8 13 -1 7 12 -22 25 -36 15 -6 -3 -8 -1 -4
5 3 6 2 13 -4 17 -5 3 -10 17 -10 31 0 14 4 23 8 20 5 -3 9 1 9 9 0 8 -7 17
-14 19 -8 3 -11 11 -7 17 4 8 -1 9 -17 5 -21 -6 -21 -5 4 9 30 17 36 28 10 18
-12 -5 -14 -3 -8 7 5 9 4 11 -4 6 -8 -6 -10 2 -6 26 3 21 2 28 -4 19 -7 -11
-9 -11 -14 0 -3 8 -4 4 -4 -8 1 -12 5 -19 9 -17 4 3 8 3 8 0 0 -3 -8 -10 -19
-15 -16 -9 -18 -7 -14 26 3 25 -1 39 -14 50 -10 8 -12 12 -6 8 9 -4 11 -1 7 9
-3 9 -11 13 -18 9 -8 -5 -8 -3 0 8 15 18 12 65 -5 81 -9 9 -12 9 -7 1 3 -6 2
-14 -4 -18 -5 -3 -10 -2 -10 4 0 5 -9 13 -20 16 -11 3 -20 11 -20 17 0 7 5 6
14 -2 10 -8 21 -8 32 -2 11 6 13 11 5 16 -6 4 -11 2 -11 -3 0 -6 -4 -11 -10
-11 -5 0 -10 6 -10 14 0 8 -5 18 -12 22 -7 4 -8 3 -4 -4 5 -8 1 -10 -10 -5
-11 4 -13 8 -6 11 15 5 16 29 0 34 -6 2 -13 14 -14 26 -3 16 0 20 12 15 9 -3
4 6 -11 21 -14 14 -24 30 -21 34 3 5 -1 9 -8 9 -7 0 -13 -6 -13 -13 0 -7 5
-10 11 -7 6 3 8 3 4 -2 -4 -4 0 -13 9 -20 14 -11 14 -12 -1 -18 -10 -4 -15 -3
-11 3 3 6 -1 13 -10 16 -8 4 -14 14 -13 23 2 9 -2 15 -7 14 -6 -1 -11 9 -11
23 0 13 4 24 9 24 5 0 6 -7 3 -16 -4 -10 -2 -13 6 -8 7 5 8 3 3 -5 -6 -10 -3
-11 14 -2 24 13 28 23 6 15 -13 -5 -20 6 -16 28 0 4 -7 4 -16 1 -13 -5 -15 -1
-11 20 4 22 3 25 -8 16 -8 -6 -11 -16 -7 -23 4 -6 -1 -5 -10 3 -18 14 -24 26
-8 17 4 -3 13 6 19 19 10 21 9 23 -5 18 -12 -5 -14 -3 -8 7 5 9 4 11 -4 6 -9
-6 -9 -11 0 -22 6 -8 7 -14 3 -14 -5 0 -15 9 -21 19 -10 15 -10 21 0 24 7 2 9
8 5 12 -4 4 -14 2 -23 -5 -8 -7 -15 -8 -15 -2 0 5 8 13 18 17 16 6 16 7 0 19
-21 16 -24 28 -4 20 8 -3 17 -1 21 5 4 7 -2 10 -15 8 -12 -2 -26 -10 -31 -18
-12 -19 -11 -2 1 21 7 13 6 19 -5 23 -10 4 -12 1 -9 -11 5 -14 4 -15 -5 -2
-14 19 -14 43 -1 35 6 -3 10 -1 10 4 0 6 -9 11 -20 11 -11 0 -18 -6 -16 -12 1
-7 1 -10 -1 -5 -3 4 -10 4 -16 1 -7 -3 1 6 16 20 30 28 28 33 -5 15 -15 -8
-19 -8 -14 0 4 6 0 14 -9 17 -9 4 -13 13 -10 24 3 11 0 17 -10 17 -8 0 -15 -4
-15 -9 0 -5 -4 -6 -10 -3 -5 3 2 18 18 32 15 15 20 24 10 20 -9 -3 -24 1 -35
9 -17 13 -16 14 12 9 27 -5 28 -4 7 5 -13 5 -21 14 -18 18 3 5 -2 18 -10 28
-9 10 -13 13 -9 7 4 -8 0 -13 -10 -13 -11 0 -14 7 -11 25 3 16 -1 28 -12 35
-13 7 -13 9 -3 10 8 0 12 3 9 6 -4 3 -15 1 -25 -5 -15 -8 -20 -7 -20 4 0 8 4
12 8 9 4 -2 11 1 15 7 4 8 3 9 -4 5 -11 -7 -17 7 -12 29 1 6 -2 6 -7 2 -4 -5
-9 -13 -9 -18 -1 -5 -2 -13 -3 -19 0 -5 -5 -10 -10 -10 -10 0 -7 32 4 50 3 6
-1 10 -10 10 -9 0 -13 -4 -10 -10 3 -5 1 -10 -4 -10 -19 0 -12 28 9 35 11 4
17 11 14 17 -4 6 -9 5 -15 -3 -4 -7 -11 -10 -15 -6 -4 3 -1 15 7 24 11 15 11
16 -1 6 -8 -7 -21 -13 -29 -13 -10 0 -5 7 12 19 l29 18 -27 1 c-19 0 -23 -3
-14 -9 11 -7 10 -9 -3 -9 -9 0 -18 -3 -21 -7 -2 -5 -2 -2 0 6 2 7 -2 20 -8 27
-9 12 -15 12 -28 2 -14 -12 -14 -11 -2 4 9 13 18 15 30 8 13 -6 18 -5 18 5 0
7 -6 11 -14 8 -13 -5 -17 6 -14 37 2 13 1 13 -8 0 -6 -8 -11 -13 -12 -10 -7
43 -10 55 -16 59 -3 3 -3 -4 0 -16 4 -16 1 -23 -10 -23 -10 0 -14 6 -11 18 3
11 0 19 -8 19 -7 0 -11 -4 -8 -9 3 -4 1 -8 -4 -8 -6 0 -13 7 -16 16 -3 8 -2
12 4 9 15 -9 12 4 -4 21 -8 7 -16 10 -19 6 -2 -4 -3 -2 -1 4 1 6 -6 24 -17 40
-10 16 -19 24 -19 19 0 -6 5 -16 11 -22 7 -7 7 -12 -3 -15 -9 -4 -14 5 -16 29
-1 19 2 32 6 29 5 -3 9 2 9 11 0 12 -5 11 -19 -7 -17 -21 -18 -21 -18 -2 0 11
3 22 8 25 9 5 -13 -1 -33 -9 -8 -3 -15 -1 -15 6 0 6 5 8 10 5 6 -3 10 -1 10 4
0 6 -5 11 -11 11 -6 0 -8 7 -5 16 5 14 4 15 -9 4 -11 -9 -15 -9 -15 -1 0 7 -4
10 -8 7 -5 -3 -9 1 -9 9 0 11 4 12 13 4 13 -10 32 6 20 18 -3 4 -6 1 -6 -6 0
-7 -5 -9 -10 -6 -8 5 -7 12 2 22 12 14 11 15 -8 3 -16 -10 -25 -10 -40 -1 -17
11 -17 11 6 7 14 -3 19 -3 12 0 -6 3 -10 10 -7 15 4 5 -2 6 -11 2 -13 -5 -15
-3 -10 8 4 8 0 5 -10 -6 -17 -20 -17 -16 1 28 3 8 -3 13 -16 14 -12 1 -27 7
-33 14 -8 9 -7 10 7 6 10 -4 16 -3 13 2 -3 5 -20 11 -37 15 -28 5 -30 8 -18
23 12 15 12 16 -4 10 -16 -6 -16 -5 0 21 l17 27 -28 -28 c-16 -15 -31 -25 -34
-22 -3 3 2 11 11 18 14 10 14 15 3 30 -12 16 -14 16 -20 2 -4 -11 -2 -14 6 -9
7 5 8 3 3 -6 -6 -10 -11 -9 -22 6 -8 10 -19 18 -24 16 -14 -3 -11 4 8 19 10 8
14 9 10 2 -4 -6 -2 -15 4 -19 8 -4 9 -3 5 4 -4 7 -2 12 4 12 7 0 6 5 -2 14 -9
10 -15 11 -20 2 -8 -11 -12 -1 -9 18 1 5 -5 3 -14 -4 -13 -11 -14 -10 -8 6 6
16 5 17 -9 6 -13 -10 -18 -10 -24 -1 -4 7 -3 9 4 5 6 -4 10 1 9 13 -1 14 -5
17 -13 10 -17 -14 -27 20 -12 39 7 9 -2 6 -19 -7 -18 -12 -33 -18 -33 -12 0 6
5 11 10 11 6 0 10 7 10 16 0 9 5 12 12 8 7 -4 8 -3 4 5 -4 6 -11 9 -16 6 -13
-8 -51 47 -45 64 4 13 2 13 -8 -1 -18 -23 -56 -20 -49 4 2 10 -1 18 -7 18 -6
0 -11 7 -11 16 0 9 5 12 12 8 6 -4 8 -3 4 4 -3 6 -17 9 -31 6 -17 -3 -32 4
-52 23 -15 16 -34 27 -43 25 -13 -2 -13 -2 0 7 8 6 12 11 8 12 -14 3 -23 6
-41 14 -16 7 -16 8 -1 20 14 9 14 14 4 20 -9 5 -11 4 -6 -3 4 -7 2 -12 -3 -12
-12 0 -15 26 -3 33 4 2 2 2 -5 1 -15 -4 -35 20 -26 30 4 4 -5 3 -19 -3 -19 -7
-29 -7 -34 1 -4 6 -3 8 2 5 6 -3 15 3 22 14 7 11 8 19 2 19 -5 0 -10 -4 -10
-10 0 -5 -7 -10 -17 -10 -14 0 -14 2 3 23 10 12 12 16 4 10 -16 -15 -34 -17
-26 -4 3 5 -1 14 -8 20 -10 8 -16 9 -21 1 -6 -10 1 -14 19 -11 5 1 4 -5 -3
-13 -17 -20 -31 -12 -26 14 2 13 -2 20 -11 20 -8 0 -14 5 -14 11 0 5 4 8 9 5
5 -3 12 1 15 10 7 18 -6 12 -44 -20 -25 -21 -25 -21 -7 0 21 25 22 41 2 24 -9
-7 -18 -10 -22 -6 -3 3 -1 6 5 6 7 0 12 5 12 11 0 5 -4 7 -10 4 -6 -4 -7 1 -3
12 6 16 5 16 -10 4 -15 -12 -17 -12 -11 2 3 10 -4 26 -21 42 -21 22 -29 24
-40 15 -15 -13 -20 -5 -16 27 2 17 -16 25 -25 12 -4 -8 -3 -9 4 -5 8 5 10 2 6
-9 -4 -9 -7 -15 -8 -13 -1 2 -8 12 -16 22 -8 11 -10 17 -4 13 7 -4 14 -1 17 7
4 10 0 12 -14 9 -20 -6 -27 13 -7 19 9 3 9 6 0 12 -7 4 -12 2 -12 -6 0 -7 -7
-3 -15 9 -15 21 -17 21 -35 6 -10 -9 -16 -21 -13 -26 3 -6 1 -7 -5 -4 -12 8
-10 32 3 44 4 4 5 2 0 -6 -6 -10 -4 -12 4 -6 9 5 7 13 -8 29 -11 11 -20 25
-20 29 1 5 -3 12 -7 15 -4 4 -3 1 1 -7 6 -11 4 -13 -8 -8 -12 4 -14 2 -10 -11
3 -10 -1 -8 -12 6 -13 18 -20 21 -31 11 -12 -10 -13 -9 -8 6 5 11 4 16 -3 12
-5 -3 -10 0 -11 8 -1 8 -3 21 -4 29 -1 9 -13 13 -39 12 -29 -1 -35 2 -27 12 6
6 17 12 26 12 29 0 4 12 -29 13 -18 1 -34 8 -35 15 -1 7 0 8 3 2 7 -15 20 -12
20 4 0 8 -5 14 -11 13 -6 -1 -10 5 -10 14 1 9 -4 16 -11 16 -7 0 -11 -6 -8
-14 4 -9 0 -11 -11 -7 -13 5 -15 2 -10 -12 4 -11 4 -16 0 -12 -7 5 -13 26 -15
50 -1 4 -9 5 -18 2 -17 -5 -17 -5 0 9 9 8 17 18 17 23 0 4 -5 3 -12 -4 -16
-16 -31 -15 -22 1 6 9 4 9 -8 -1 -13 -11 -20 -11 -36 -1 -20 12 -20 13 2 32
11 10 14 15 6 10 -17 -9 -69 -12 -67 -4 3 13 -15 51 -24 51 -6 0 -6 -8 1 -20
9 -16 8 -18 -5 -14 -8 3 -12 10 -9 15 3 5 -2 12 -10 15 -9 3 -13 10 -10 15 3
5 -2 10 -10 10 -37 3 -41 5 -40 22 1 9 -5 17 -13 17 -8 0 -11 -5 -7 -12 4 -7
3 -8 -4 -4 -6 4 -9 13 -6 20 3 8 0 17 -5 21 -6 3 -8 11 -5 17 4 7 2 8 -5 4 -6
-4 -9 -11 -7 -15 3 -4 0 -13 -6 -21 -8 -12 -9 -12 -5 2 4 12 0 16 -14 15 -11
-1 -17 -7 -15 -14 3 -7 1 -13 -4 -13 -5 0 -7 -8 -4 -17 4 -12 3 -14 -3 -6 -5
7 -9 25 -8 40 0 16 -4 32 -10 36 -6 5 -4 7 5 4 8 -2 14 -10 12 -16 -1 -7 2 -9
8 -6 6 4 9 13 6 20 -2 7 0 17 6 23 13 13 -10 11 -31 -2 -10 -6 -12 -5 -7 2 5
8 -2 12 -19 12 -24 0 -26 -3 -23 -39z m28 -1 c0 -5 -4 -10 -10 -10 -5 0 -10 5
-10 10 0 6 5 10 10 10 6 0 10 -4 10 -10z m65 -120 c3 -5 13 -6 22 -3 15 6 16
5 3 -9 -9 -10 -17 -12 -21 -6 -4 6 -13 14 -20 19 -9 6 -10 9 -2 9 6 0 14 -4
18 -10z m140 -171 c-5 -14 -4 -19 4 -15 7 5 8 1 4 -10 -5 -14 -7 -14 -15 -1
-4 8 -5 22 -2 31 9 24 16 19 9 -5z m320 -59 c3 -6 -1 -7 -9 -4 -18 7 -21 14
-7 14 6 0 13 -4 16 -10z m-242 -57 c-10 -3 -10 -10 -2 -26 10 -21 9 -21 -5 -3
-16 20 -13 37 7 35 9 0 9 -2 0 -6z m297 -13 c0 -5 -5 -10 -11 -10 -5 0 -7 5
-4 10 3 6 8 10 11 10 2 0 4 -4 4 -10z m61 -17 c7 -10 10 -15 5 -11 -5 4 -18 3
-30 -3 -19 -9 -19 -9 -4 4 10 8 15 17 11 20 -3 4 -4 7 -1 7 3 0 12 -8 19 -17z
m65 -55 c12 -36 13 -49 2 -42 -5 3 -7 8 -4 11 10 10 -15 44 -26 37 -7 -4 -8
-3 -4 4 11 18 24 14 32 -10z m138 -115 c3 -7 0 -15 -6 -19 -6 -4 -8 -3 -5 3 3
5 -3 16 -14 23 -10 8 -19 18 -19 22 0 11 39 -14 44 -29z m-340 -91 c2 -4 -5
-9 -17 -9 -17 -2 -19 0 -7 7 18 12 18 12 24 2z m559 -118 c-3 -8 -7 -14 -10
-14 -3 0 -3 6 0 14 8 20 -4 28 -20 15 -8 -8 -13 -8 -13 -1 0 15 23 21 37 10 6
-5 9 -16 6 -24z m164 -138 c0 -15 -21 -16 -34 -1 -4 4 -3 5 4 1 6 -3 14 -2 18
4 8 14 12 13 12 -4z m-577 -26 c-12 -8 -12 -10 -1 -10 8 0 12 -3 8 -6 -9 -9
-28 6 -22 17 4 5 12 9 18 9 7 0 6 -4 -3 -10z m700 -97 c0 -1 -7 0 -15 3 -8 3
-13 11 -12 17 1 7 -4 11 -11 9 -8 -1 -11 2 -7 8 3 5 -2 10 -12 10 -15 0 -15 2
-4 9 11 7 21 1 38 -22 13 -17 23 -32 23 -34z m3490 23 c0 -3 -4 -8 -10 -11 -5
-3 -10 -1 -10 4 0 6 5 11 10 11 6 0 10 -2 10 -4z m-4099 -99 c-10 -9 -11 -8
-5 6 3 10 9 15 12 12 3 -3 0 -11 -7 -18z m4103 -59 c-3 -4 -11 -5 -19 -2 -11
5 -12 9 -2 19 12 13 31 -1 21 -17z m-4007 -65 c-4 -3 -2 -12 4 -19 8 -10 6
-11 -15 -1 -21 10 -23 13 -8 19 23 9 27 9 19 1z m3907 -35 c-3 -4 -11 -5 -19
-2 -11 5 -12 9 -2 19 12 13 31 -1 21 -17z m-3164 -23 c14 -19 14 -19 -2 -6
-10 7 -18 18 -18 24 0 6 1 8 3 6 1 -2 9 -13 17 -24z m3092 -64 c-9 -16 -19
-28 -21 -25 -6 6 21 54 30 54 5 0 0 -13 -9 -29z m-117 -150 c-9 -8 -36 -10
-30 -2 2 4 11 8 20 8 8 0 13 -3 10 -6z m-3525 -51 c0 -5 -5 -10 -11 -10 -5 0
-7 5 -4 10 3 6 8 10 11 10 2 0 4 -4 4 -10z m3391 -83 l-24 -22 19 27 c10 14
21 24 23 22 3 -3 -6 -15 -18 -27z m-517 -8 c-3 -5 -10 -7 -15 -3 -5 3 -7 10
-3 15 3 5 10 7 15 3 5 -3 7 -10 3 -15z m-1985 -3 c9 -10 7 -17 -6 -27 -16 -13
-17 -12 -4 4 9 11 10 17 2 17 -6 0 -11 5 -11 10 0 14 5 13 19 -4z m-825 -40
c-3 -9 -10 -13 -15 -10 -5 3 -3 11 4 19 15 16 19 13 11 -9z m3320 -16 c-6 -5
-24 21 -24 34 0 6 6 1 14 -10 8 -10 12 -21 10 -24z m-74 -70 c0 -5 -5 -10 -11
-10 -5 0 -7 5 -4 10 3 6 8 10 11 10 2 0 4 -4 4 -10z m-2245 -122 c-5 -24 -18
-40 -15 -18 4 29 0 41 -12 34 -7 -4 -8 -3 -4 4 11 18 35 2 31 -20z m2185 28
c0 -3 -4 -8 -10 -11 -5 -3 -10 -1 -10 4 0 6 5 11 10 11 6 0 10 -2 10 -4z
m-3053 -58 c-3 -8 -6 -5 -6 6 -1 11 2 17 5 13 3 -3 4 -12 1 -19z m16 -25 c-4
-10 -2 -14 4 -10 5 3 10 -1 10 -9 0 -13 -2 -13 -15 0 -8 8 -11 19 -8 25 11 17
16 13 9 -6z m897 13 c0 -2 -7 -9 -15 -16 -13 -11 -14 -10 -9 4 5 14 24 23 24
12z m2084 -62 c5 -14 4 -15 -9 -4 -17 14 -19 20 -6 20 5 0 12 -7 15 -16z
m-687 -32 c-9 -2 -15 -7 -13 -11 3 -4 -1 -8 -9 -8 -10 0 -12 4 -5 12 5 7 7 14
4 18 -3 3 5 3 18 -1 18 -5 19 -7 5 -10z m-2231 -56 c4 -13 8 -15 14 -6 5 8 9
7 13 -5 4 -9 3 -13 -3 -10 -6 3 -10 2 -10 -4 0 -5 6 -12 13 -14 9 -4 9 -6 0
-6 -7 -1 -19 11 -27 27 -8 15 -18 26 -23 25 -4 -2 -8 0 -8 5 0 4 -4 13 -9 20
-7 11 -4 11 13 0 12 -7 24 -21 27 -32z m2897 32 c-4 -7 -8 -16 -9 -20 -1 -5
-2 -11 -3 -14 0 -4 -8 -1 -16 6 -15 12 -11 35 5 25 5 -3 11 -1 15 5 3 5 8 10
11 10 3 0 2 -6 -3 -12z m-85 -154 c-12 -12 -17 -13 -23 -3 -5 7 -4 10 2 6 6
-4 13 0 17 8 3 8 1 15 -4 15 -6 0 -10 5 -10 12 0 8 6 6 17 -5 16 -16 16 -18 1
-33z m-743 -32 c-8 -8 -25 10 -19 20 4 6 9 5 15 -3 4 -7 6 -15 4 -17z m649
-187 c-4 -8 -10 -15 -15 -15 -4 0 -6 7 -3 15 4 8 10 15 15 15 4 0 6 -7 3 -15z
m-831 -38 c3 -7 -3 -13 -14 -13 -13 0 -15 3 -7 13 6 7 12 13 13 13 2 0 5 -6 8
-13z m-776 -14 c0 -9 -4 -10 -14 -2 -7 6 -13 12 -13 14 0 1 6 2 13 2 8 0 14
-6 14 -14z m728 -113 c-3 -5 -12 -10 -18 -10 -7 0 -6 4 3 10 19 12 23 12 15 0z
m-618 -15 c0 -8 -4 -15 -9 -15 -10 0 -11 14 -1 23 9 10 10 9 10 -8z m3 -31 c0
-8 -19 -13 -24 -6 -3 5 1 9 9 9 8 0 15 -2 15 -3z m-919 -81 c13 -16 12 -17 -3
-4 -10 7 -18 15 -18 17 0 8 8 3 21 -13z m934 -1 c-3 -3 -11 0 -18 7 -9 10 -8
11 6 5 10 -3 15 -9 12 -12z m468 -6 c4 -10 1 -13 -8 -9 -8 3 -12 9 -9 14 7 12
11 11 17 -5z m-1407 -30 c8 -9 11 -22 7 -33 -6 -16 -5 -17 13 -3 18 14 18 14
5 -2 -15 -20 -35 -14 -27 7 6 16 -17 38 -29 27 -5 -4 -5 -1 -1 6 9 16 14 15
32 -2z m989 -36 c3 -5 1 -10 -4 -10 -6 0 -11 5 -11 10 0 6 2 10 4 10 3 0 8 -4
11 -10z m1252 -8 c-10 -10 -14 -22 -10 -25 3 -4 4 -7 1 -7 -3 0 -13 9 -23 20
-17 19 -17 19 4 15 11 -2 23 0 26 6 4 5 9 9 12 9 3 0 -1 -8 -10 -18z m-1229
-57 c-3 -3 -13 -2 -22 1 -14 5 -15 9 -4 15 13 8 36 -6 26 -16z m-972 -20 c11
-11 12 -15 3 -15 -8 0 -5 -6 5 -13 16 -12 16 -14 2 -14 -9 0 -17 4 -17 9 -3
19 -5 24 -12 36 -11 17 1 15 19 -3z m974 -55 c0 -5 -2 -10 -4 -10 -3 0 -8 5
-11 10 -3 6 -1 10 4 10 6 0 11 -4 11 -10z m1157 -19 c-1 -15 -4 -17 -14 -9
-15 12 -17 22 -3 13 6 -3 10 -1 10 4 0 6 2 11 4 11 3 0 4 -9 3 -19z m-43 -83
c-5 -8 -2 -9 10 -5 14 6 15 3 6 -13 -6 -11 -16 -20 -23 -20 -8 0 -8 3 2 9 9 6
10 11 2 15 -10 7 -6 26 5 26 3 0 2 -5 -2 -12z m-952 -82 c-4 -6 -7 -15 -7 -20
0 -5 -7 -11 -15 -13 -9 -3 -11 -1 -5 4 16 13 16 33 0 39 -12 5 -13 9 -3 21 10
13 14 13 25 -3 7 -9 9 -22 5 -28z m51 19 c-3 -9 -8 -14 -10 -11 -3 3 -2 9 2
15 9 16 15 13 8 -4z m-1103 -13 c0 -13 -12 -22 -22 -16 -10 6 -1 24 13 24 5 0
9 -4 9 -8z m1956 -125 c-1 -7 -7 -20 -12 -31 -10 -16 -12 -17 -17 -2 -4 10 -3
14 2 11 5 -3 12 -1 16 5 3 5 0 10 -7 10 -9 0 -9 3 2 10 10 6 11 10 3 10 -7 0
-13 5 -13 11 0 8 4 8 14 0 8 -7 13 -17 12 -24z m-1936 3 c0 -5 -2 -10 -4 -10
-3 0 -8 5 -11 10 -3 6 -1 10 4 10 6 0 11 -4 11 -10z m15 -20 c-3 -5 -1 -10 6
-10 7 0 10 -3 6 -6 -9 -9 -28 6 -22 17 4 5 8 9 11 9 3 0 2 -4 -1 -10z m1899
-49 c3 -5 -1 -14 -8 -20 -12 -10 -14 -9 -11 6 2 10 4 19 4 21 2 5 10 2 15 -7z
m-4 -47 c0 -8 -19 -13 -24 -6 -3 5 1 9 9 9 8 0 15 -2 15 -3z m-60 -79 c0 -8
-4 -15 -10 -15 -5 0 -7 7 -4 15 4 8 8 15 10 15 2 0 4 -7 4 -15z m-1750 -21 c0
-8 -19 -13 -24 -6 -3 5 1 9 9 9 8 0 15 -2 15 -3z m1730 -185 c0 -14 -17 -10
-23 5 -4 10 -1 13 9 9 7 -3 14 -9 14 -14z m-1691 -42 c14 -22 13 -22 -7 -4
-15 14 -21 15 -25 5 -3 -7 -4 -3 -4 8 1 26 17 22 36 -9z m22 -50 c-10 -9 -11
-8 -5 6 3 10 9 15 12 12 3 -3 0 -11 -7 -18z m-24 -19 c2 -17 0 -19 -7 -8 -5 8
-6 18 -4 22 8 12 10 10 11 -14z m1613 -38 c-6 -11 -13 -20 -16 -20 -2 0 0 9 6
20 6 11 13 20 16 20 2 0 0 -9 -6 -20z m-19 -173 c-8 -8 -14 -7 -23 2 -11 10
-9 11 6 5 15 -6 17 -4 11 6 -6 9 -4 11 4 5 9 -5 10 -10 2 -18z m-24 -72 c0 -8
-4 -15 -9 -15 -5 0 -6 -4 -3 -10 4 -6 -1 -7 -11 -3 -11 4 -13 8 -6 11 7 2 12
10 12 18 0 8 4 14 8 14 5 0 9 -7 9 -15z m-1452 -25 c3 -6 -1 -7 -9 -4 -18 7
-21 14 -7 14 6 0 13 -4 16 -10z m1430 -39 c3 -5 2 -12 -3 -15 -5 -3 -9 1 -9 9
0 17 3 19 12 6z m-77 -276 c-3 -3 -9 2 -12 12 -6 14 -5 15 5 6 7 -7 10 -15 7
-18z m-1304 -13 c2 -4 -4 -8 -14 -8 -10 0 -16 4 -14 8 3 4 9 8 14 8 5 0 11 -4
14 -8z m1266 -192 c0 -5 -5 -10 -11 -10 -5 0 -7 5 -4 10 3 6 8 10 11 10 2 0 4
-4 4 -10z m-1230 -60 c6 -11 8 -20 6 -20 -3 0 -10 9 -16 20 -6 11 -8 20 -6 20
3 0 10 -9 16 -20z m1246 -9 c-4 -6 -17 -16 -29 -21 -22 -10 -22 -10 1 6 12 9
22 22 22 28 0 6 -4 4 -10 -4 -5 -8 -12 -11 -17 -7 -4 5 -1 12 7 17 17 11 35
-3 26 -19z m-1226 -31 c8 -5 11 -10 5 -10 -5 0 -17 5 -25 10 -8 5 -10 10 -5
10 6 0 17 -5 25 -10z m1205 -38 c-1 -21 -24 -62 -25 -44 0 23 -2 27 -13 42
-11 13 -10 13 7 0 18 -14 19 -13 14 7 -4 14 -2 20 6 17 7 -3 12 -13 11 -22z
m-1205 -57 c-7 -8 -10 -16 -6 -16 3 -1 10 -2 15 -3 18 -2 21 -13 4 -13 -25 0
-33 17 -20 38 6 10 13 16 16 14 2 -3 -2 -11 -9 -20z m1187 -41 c-3 -3 -12 -4
-19 -1 -8 3 -5 6 6 6 11 1 17 -2 13 -5z m-1171 -88 c8 -8 14 -18 14 -22 0 -5
-5 -3 -12 4 -9 9 -15 9 -27 -1 -14 -10 -14 -10 -4 4 7 9 10 19 6 22 -3 4 -3 7
1 7 4 0 14 -6 22 -14z m1144 -97 c0 -4 -9 -7 -19 -6 -11 0 -18 4 -16 7 6 9 35
8 35 -1z"/>
<path d="M93 5093 c-3 -10 -8 -22 -10 -28 -3 -5 3 -1 11 9 16 20 21 36 11 36
-3 0 -8 -8 -12 -17z"/>
<path d="M140 5067 c0 -9 31 -37 41 -37 5 0 9 5 9 12 0 6 -3 8 -7 5 -3 -4 -15
0 -25 10 -10 9 -18 13 -18 10z"/>
<path d="M15 5030 c-16 -17 -16 -20 -3 -15 9 4 19 13 22 21 7 19 2 18 -19 -6z"/>
<path d="M170 5011 c0 -6 9 -8 20 -6 11 2 25 -4 33 -15 9 -13 17 -16 27 -9 13
7 12 9 -2 9 -9 0 -18 5 -20 10 -4 14 -58 23 -58 11z"/>
<path d="M30 5001 c0 -6 4 -13 10 -16 6 -3 7 1 4 9 -7 18 -14 21 -14 7z"/>
<path d="M271 4972 c-2 -23 18 -50 34 -48 9 1 15 5 15 9 0 4 0 10 0 13 0 4 -6
1 -14 -5 -11 -10 -16 -6 -24 16 -6 15 -11 22 -11 15z"/>
<path d="M348 4906 c-17 -13 -14 -26 5 -26 6 0 7 3 4 7 -4 3 -2 12 4 20 14 16
9 16 -13 -1z"/>
<path d="M143 4870 c-1 -10 5 -21 14 -24 12 -5 13 -4 5 7 -7 8 -9 16 -6 19 3
3 1 8 -3 11 -5 3 -9 -3 -10 -13z"/>
<path d="M588 4733 c7 -3 16 -2 19 1 4 3 -2 6 -13 5 -11 0 -14 -3 -6 -6z"/>
<path d="M233 4704 c0 -9 5 -10 19 -3 14 7 18 6 18 -6 0 -9 5 -13 11 -9 8 4 8
9 0 17 -15 15 -48 16 -48 1z"/>
<path d="M594 4705 c22 -17 40 -20 32 -6 -3 5 -16 11 -28 14 -22 6 -22 5 -4
-8z"/>
<path d="M290 4599 c0 -5 5 -7 10 -4 6 3 10 8 10 11 0 2 -4 4 -10 4 -5 0 -10
-5 -10 -11z"/>
<path d="M816 4533 c-6 -14 -5 -15 5 -6 7 7 10 15 7 18 -3 3 -9 -2 -12 -12z"/>
<path d="M381 4491 c-9 -6 -10 -11 -2 -15 6 -4 11 -2 11 5 0 7 6 4 14 -6 8
-11 12 -26 9 -35 -2 -8 1 -6 8 5 12 19 14 28 4 23 -2 -2 -10 5 -17 14 -9 12
-18 15 -27 9z"/>
<path d="M1141 4241 c-7 -5 -9 -11 -5 -14 5 -3 15 1 22 9 14 16 5 18 -17 5z"/>
<path d="M547 4226 c-4 -10 -3 -15 3 -11 6 3 10 1 10 -6 0 -7 3 -10 6 -6 3 3
2 13 -4 22 -8 16 -9 16 -15 1z"/>
<path d="M1195 4190 c40 -41 59 -54 34 -23 -24 29 -60 63 -66 63 -4 0 11 -18
32 -40z"/>
<path d="M586 4185 c4 -8 11 -15 16 -15 6 0 5 6 -2 15 -7 8 -14 15 -16 15 -2
0 -1 -7 2 -15z"/>
<path d="M5075 4140 c-16 -7 -17 -9 -3 -9 9 -1 20 4 23 9 7 11 7 11 -20 0z"/>
<path d="M5106 4132 c-6 -18 -38 -23 -52 -9 -8 8 -24 -1 -24 -14 0 -5 13 -7
29 -4 30 5 50 -8 31 -20 -6 -4 -8 -10 -5 -15 3 -5 1 -11 -5 -15 -5 -3 -10 -12
-10 -18 0 -7 9 2 20 18 12 18 20 24 20 15 0 -9 -6 -22 -12 -30 -11 -12 -10
-12 3 -2 12 9 16 27 16 62 -2 55 -3 59 -11 32z"/>
<path d="M630 4120 c0 -5 5 -10 11 -10 5 0 7 5 4 10 -3 6 -8 10 -11 10 -2 0
-4 -4 -4 -10z"/>
<path d="M5010 4121 c0 -7 -5 -9 -12 -5 -7 5 -8 3 -3 -5 5 -9 10 -10 18 -2 6
6 8 14 4 18 -4 3 -7 1 -7 -6z"/>
<path d="M4881 4054 c0 -11 3 -14 6 -6 3 7 2 16 -1 19 -3 4 -6 -2 -5 -13z"/>
<path d="M679 4058 c-8 -27 -5 -35 12 -31 15 4 17 8 8 19 -11 13 -18 17 -20
12z"/>
<path d="M4787 4013 c7 -17 18 -16 32 1 10 11 7 14 -12 12 -15 0 -23 -6 -20
-13z"/>
<path d="M4760 4011 c0 -6 4 -13 10 -16 6 -3 7 1 4 9 -7 18 -14 21 -14 7z"/>
<path d="M4995 3996 c-14 -10 -15 -15 -5 -21 9 -6 11 -4 5 5 -6 10 -4 12 8 7
9 -3 19 -2 22 3 9 15 -11 20 -30 6z"/>
<path d="M5046 4002 c-3 -5 1 -9 9 -9 8 0 15 4 15 9 0 4 -4 8 -9 8 -6 0 -12
-4 -15 -8z"/>
<path d="M1425 3980 c-3 -6 1 -7 9 -4 18 7 21 14 7 14 -6 0 -13 -4 -16 -10z"/>
<path d="M740 3960 c-9 -6 -10 -10 -3 -10 6 0 15 5 18 10 8 12 4 12 -15 0z"/>
<path d="M4954 3955 c-10 -8 -17 -15 -14 -15 34 -8 38 -7 33 8 -5 11 -3 13 7
7 9 -5 11 -4 6 3 -9 15 -8 15 -32 -3z"/>
<path d="M4905 3921 c-3 -5 -2 -12 3 -15 5 -3 9 1 9 9 0 17 -3 19 -12 6z"/>
<path d="M765 3890 c-16 -7 -17 -9 -3 -9 9 -1 20 4 23 9 7 11 7 11 -20 0z"/>
<path d="M1610 3800 c0 -5 5 -10 11 -10 5 0 7 5 4 10 -3 6 -8 10 -11 10 -2 0
-4 -4 -4 -10z"/>
<path d="M4830 3799 c0 -5 5 -7 10 -4 6 3 10 8 10 11 0 2 -4 4 -10 4 -5 0 -10
-5 -10 -11z"/>
<path d="M1647 3779 c7 -7 15 -10 18 -7 3 3 -2 9 -12 12 -14 6 -15 5 -6 -5z"/>
<path d="M833 3755 c0 -8 4 -12 9 -9 5 3 6 10 3 15 -9 13 -12 11 -12 -6z"/>
<path d="M4346 3758 c5 -8 2 -9 -10 -5 -11 5 -15 3 -10 -5 5 -8 2 -9 -9 -5 -9
3 -19 1 -23 -5 -4 -6 -3 -8 4 -4 5 3 12 2 14 -2 1 -5 16 -1 31 8 23 14 25 19
12 24 -11 4 -14 2 -9 -6z"/>
<path d="M880 3710 c-9 -6 -10 -10 -3 -10 6 0 15 5 18 10 8 12 4 12 -15 0z"/>
<path d="M4184 3679 c-4 -7 -3 -9 4 -5 5 3 13 0 15 -6 4 -9 6 -10 6 -1 1 17
-16 25 -25 12z"/>
<path d="M893 3645 c0 -8 4 -12 9 -9 5 3 6 10 3 15 -9 13 -12 11 -12 -6z"/>
<path d="M1778 3618 c5 -5 16 -8 23 -6 8 3 3 7 -10 11 -17 4 -21 3 -13 -5z"/>
<path d="M4123 3598 c7 -19 -8 -35 -16 -18 -3 6 -4 5 -3 -1 1 -7 9 -13 18 -15
12 -1 15 4 13 18 -3 12 -7 23 -11 27 -4 3 -4 -2 -1 -11z"/>
<path d="M995 3510 c-16 -7 -17 -9 -3 -9 9 -1 20 4 23 9 7 11 7 11 -20 0z"/>
<path d="M4028 3506 c-22 -16 -23 -23 -3 -23 8 0 13 3 10 5 -3 3 0 11 6 19 14
16 9 16 -13 -1z"/>
<path d="M4547 3493 c-4 -3 -7 -11 -7 -17 0 -6 5 -5 12 2 6 6 9 14 7 17 -3 3
-9 2 -12 -2z"/>
<path d="M1892 3476 c7 -8 15 -12 17 -11 5 6 -10 25 -20 25 -5 0 -4 -6 3 -14z"/>
<path d="M990 3446 c0 -2 7 -7 16 -10 8 -3 12 -2 9 4 -6 10 -25 14 -25 6z"/>
<path d="M4505 3430 c-3 -5 -1 -10 4 -10 6 0 11 5 11 10 0 6 -2 10 -4 10 -3 0
-8 -4 -11 -10z"/>
<path d="M3816 3333 c-6 -14 -5 -15 5 -6 7 7 10 15 7 18 -3 3 -9 -2 -12 -12z"/>
<path d="M4365 3220 c-3 -5 -2 -10 4 -10 5 0 13 5 16 10 3 6 2 10 -4 10 -5 0
-13 -4 -16 -10z"/>
<path d="M4380 3200 c-8 -5 -10 -10 -5 -10 6 0 17 5 25 10 8 5 11 10 5 10 -5
0 -17 -5 -25 -10z"/>
<path d="M4295 3049 c-4 -6 -5 -12 -2 -15 2 -3 7 2 10 11 7 17 1 20 -8 4z"/>
<path d="M3555 3040 c3 -5 8 -10 11 -10 2 0 4 5 4 10 0 6 -5 10 -11 10 -5 0
-7 -4 -4 -10z"/>
<path d="M2205 3020 c-3 -6 1 -7 9 -4 18 7 21 14 7 14 -6 0 -13 -4 -16 -10z"/>
<path d="M2234 3001 c4 -5 1 -11 -5 -13 -7 -2 -7 -8 3 -15 10 -8 18 -9 28 -1
12 8 12 9 -3 4 -15 -5 -17 -2 -12 14 4 12 2 20 -5 20 -6 0 -9 -4 -6 -9z"/>
<path d="M3456 2942 c-2 -4 -1 -14 3 -21 6 -9 11 -10 15 -2 4 6 2 11 -4 11 -6
0 -8 5 -5 10 3 6 4 10 1 10 -3 0 -7 -4 -10 -8z"/>
<path d="M1418 2733 c6 -2 9 -10 6 -15 -4 -7 -2 -8 5 -4 13 9 5 26 -12 25 -9
0 -8 -2 1 -6z"/>
<path d="M3247 2677 c2 -4 14 -5 26 -1 18 5 20 4 9 -7 -7 -8 -18 -14 -25 -14
-6 0 -13 -9 -15 -19 -4 -17 1 -15 30 10 40 33 40 44 -1 41 -16 -1 -27 -6 -24
-10z"/>
<path d="M2467 2619 c7 -7 15 -10 18 -7 3 3 -2 9 -12 12 -14 6 -15 5 -6 -5z"/>
<path d="M3215 2620 c-3 -5 -1 -10 4 -10 6 0 11 5 11 10 0 6 -2 10 -4 10 -3 0
-8 -4 -11 -10z"/>
<path d="M1485 2613 c3 -3 -1 -13 -8 -21 -10 -13 -9 -14 2 -7 11 6 13 4 7 -11
-4 -10 -4 -15 0 -11 4 4 14 1 22 -6 13 -10 13 -7 -1 13 -9 14 -16 29 -16 33 1
5 -2 11 -5 13 -3 2 -4 1 -1 -3z"/>
<path d="M2475 2560 c-3 -5 -1 -10 4 -10 6 0 11 5 11 10 0 6 -2 10 -4 10 -3 0
-8 -4 -11 -10z"/>
<path d="M1476 2538 c3 -5 10 -6 15 -3 13 9 11 12 -6 12 -8 0 -12 -4 -9 -9z"/>
<path d="M2500 2526 c0 -2 8 -10 18 -17 15 -13 16 -12 3 4 -13 16 -21 21 -21
13z"/>
<path d="M3147 2490 c-10 -12 -23 -18 -30 -14 -9 6 -9 4 0 -8 7 -8 9 -19 5
-23 -4 -5 -1 -5 6 -1 7 4 10 11 7 16 -5 8 23 25 37 22 4 -1 5 5 2 13 -8 19 -6
19 -27 -5z"/>
<path d="M1493 2465 c0 -8 4 -12 9 -9 5 3 6 10 3 15 -9 13 -12 11 -12 -6z"/>
<path d="M3073 2435 c0 -8 4 -12 9 -9 5 3 6 10 3 15 -9 13 -12 11 -12 -6z"/>
<path d="M3990 2430 c0 -5 5 -10 11 -10 5 0 7 5 4 10 -3 6 -8 10 -11 10 -2 0
-4 -4 -4 -10z"/>
<path d="M3067 2404 c-7 -8 3 -34 13 -34 9 0 8 26 -1 35 -3 3 -8 2 -12 -1z"/>
<path d="M1575 2300 c-8 -13 5 -13 25 0 13 8 13 10 -2 10 -9 0 -20 -4 -23 -10z"/>
<path d="M2945 2240 c-3 -6 1 -7 9 -4 18 7 21 14 7 14 -6 0 -13 -4 -16 -10z"/>
<path d="M2957 2223 c-4 -6 0 -13 8 -17 8 -3 17 0 21 6 4 6 3 8 -4 4 -5 -3
-12 -1 -14 6 -3 8 -6 9 -11 1z"/>
<path d="M2663 2136 c1 -11 9 -21 17 -23 10 -3 11 -2 4 4 -6 4 -14 15 -17 23
-5 11 -6 9 -4 -4z"/>
<path d="M2700 2106 c0 -2 7 -7 16 -10 8 -3 12 -2 9 4 -6 10 -25 14 -25 6z"/>
<path d="M3833 2095 c0 -8 4 -12 9 -9 4 3 8 9 8 15 0 5 -4 9 -8 9 -5 0 -9 -7
-9 -15z"/>
<path d="M2711 2066 c-9 -10 -9 -16 -1 -21 6 -4 14 -4 17 -1 4 3 1 6 -7 6 -10
0 -10 3 0 15 7 8 10 15 7 15 -2 0 -10 -6 -16 -14z"/>
<path d="M1675 2059 l-20 -8 20 0 c15 -1 17 -3 6 -10 -7 -5 -9 -11 -4 -14 5
-3 14 3 21 13 14 23 5 31 -23 19z"/>
<path d="M3786 2032 c-4 -7 -4 -12 1 -13 4 0 16 -2 26 -4 9 -2 17 1 17 7 0 6
-6 8 -14 5 -8 -3 -16 -1 -19 6 -2 8 -5 8 -11 -1z"/>
<path d="M2709 2017 c6 -8 8 -17 4 -20 -3 -4 -1 -7 5 -7 6 0 10 9 9 20 -1 11
-8 20 -15 20 -11 0 -12 -3 -3 -13z"/>
<path d="M2840 2001 c0 -6 4 -13 10 -16 6 -3 7 1 4 9 -7 18 -14 21 -14 7z"/>
<path d="M1665 1960 c-3 -6 1 -7 9 -4 18 7 21 14 7 14 -6 0 -13 -4 -16 -10z"/>
<path d="M3750 1810 c-9 -6 -10 -10 -3 -10 6 0 15 5 18 10 8 12 4 12 -15 0z"/>
<path d="M1755 1740 c-3 -5 -1 -10 4 -10 6 0 11 5 11 10 0 6 -2 10 -4 10 -3 0
-8 -4 -11 -10z"/>
<path d="M1800 1660 c-11 -7 -11 -10 -2 -10 8 0 10 -5 6 -12 -4 -7 -3 -9 1 -5
7 6 17 37 12 37 -1 0 -9 -5 -17 -10z"/>
<path d="M3676 1641 c-3 -5 1 -11 9 -14 9 -4 12 -1 8 9 -6 16 -10 17 -17 5z"/>
<path d="M1811 1588 c21 -29 14 -38 -11 -15 -12 10 -12 9 -1 -5 7 -9 21 -16
31 -15 18 1 18 2 -1 28 -14 20 -16 29 -7 32 7 3 3 4 -9 4 l-21 -1 19 -28z"/>
<path d="M3690 1599 c0 -5 5 -7 10 -4 6 3 10 8 10 11 0 2 -4 4 -10 4 -5 0 -10
-5 -10 -11z"/>
<path d="M1830 1509 c-23 -18 -23 -19 -2 -9 15 7 22 7 22 0 0 -5 -6 -10 -12
-10 -9 0 -8 -4 2 -10 23 -15 27 -12 27 20 0 35 -4 36 -37 9z"/>
<path d="M3620 1500 c0 -5 5 -10 11 -10 5 0 7 -5 3 -12 -4 -7 -3 -8 5 -4 9 6
9 11 0 22 -14 17 -19 18 -19 4z"/>
<path d="M3573 1357 c-5 -6 -10 -23 -11 -37 -1 -25 3 -22 28 22 12 20 -3 34
-17 15z"/>
<path d="M3590 1310 c-8 -15 -8 -18 3 -14 8 3 14 11 14 19 0 20 -4 19 -17 -5z"/>
<path d="M3575 1260 c-3 -5 -1 -10 4 -10 6 0 11 5 11 10 0 6 -2 10 -4 10 -3 0
-8 -4 -11 -10z"/>
<path d="M1893 1247 c0 -19 24 -30 33 -16 3 6 3 13 0 16 -3 4 -6 0 -6 -7 0 -9
-4 -8 -13 4 -12 16 -14 16 -14 3z"/>
<path d="M3547 1236 c-4 -10 -1 -13 8 -9 8 3 12 9 9 14 -7 12 -11 11 -17 -5z"/>
<path d="M1923 1142 c10 -10 15 -21 12 -24 -3 -2 1 -5 9 -5 7 0 13 7 11 16 -1
9 -8 15 -14 14 -6 -2 -11 2 -11 7 0 6 -5 10 -12 10 -6 0 -4 -7 5 -18z"/>
<path d="M3546 1123 c-6 -14 -5 -15 5 -6 7 7 10 15 7 18 -3 3 -9 -2 -12 -12z"/>
<path d="M1953 955 c0 -8 4 -12 9 -9 5 3 6 10 3 15 -9 13 -12 11 -12 -6z"/>
<path d="M2005 891 c-3 -5 -2 -12 3 -15 5 -3 9 1 9 9 0 17 -3 19 -12 6z"/>
<path d="M1975 880 c3 -5 8 -10 11 -10 2 0 4 5 4 10 0 6 -5 10 -11 10 -5 0 -7
-4 -4 -10z"/>
<path d="M3485 880 c3 -5 8 -10 11 -10 2 0 4 5 4 10 0 6 -5 10 -11 10 -5 0 -7
-4 -4 -10z"/>
<path d="M3425 741 c-3 -5 -2 -12 3 -15 5 -3 9 1 9 9 0 17 -3 19 -12 6z"/>
<path d="M3406 653 c-10 -11 -7 -21 10 -27 10 -4 13 -2 8 6 -5 8 -2 9 9 5 23
-9 21 0 -2 12 -10 6 -21 7 -25 4z"/>
<path d="M3390 616 c0 -2 7 -7 16 -10 8 -3 12 -2 9 4 -6 10 -25 14 -25 6z"/>
<path d="M2050 596 c0 -8 7 -17 15 -20 13 -4 14 -10 5 -26 -8 -16 -8 -18 4
-14 16 6 15 26 -2 46 -6 8 -9 18 -5 21 3 4 1 7 -5 7 -7 0 -12 -6 -12 -14z"/>
<path d="M3391 594 c1 -5 0 -11 -1 -14 -8 -21 -6 -37 5 -37 7 0 10 8 7 20 -3
13 -1 18 6 13 6 -3 14 -1 18 6 4 7 4 10 -1 6 -4 -4 -14 -3 -22 4 -8 6 -13 7
-12 2z"/>
<path d="M3395 369 c-4 -6 -5 -12 -2 -15 2 -3 7 2 10 11 7 17 1 20 -8 4z"/>
<path d="M3380 315 c-7 -9 -11 -17 -9 -20 3 -2 10 5 17 15 14 24 10 26 -8 5z"/>
<path d="M2103 285 c0 -8 4 -12 9 -9 5 3 6 10 3 15 -9 13 -12 11 -12 -6z"/>
<path d="M3346 263 c-6 -14 -5 -15 5 -6 7 7 10 15 7 18 -3 3 -9 -2 -12 -12z"/>
<path d="M2110 205 c0 -8 4 -15 8 -15 5 0 9 7 9 15 0 8 -4 15 -9 15 -4 0 -8
-7 -8 -15z"/>
<path d="M3314 115 c3 -23 12 -26 13 -5 1 11 -2 20 -7 20 -4 0 -7 -7 -6 -15z"/>
</g>
</svg>
